<svg width="1920" height="1080" viewBox="0 0 1920 1080" fill="none" xmlns="http://www.w3.org/2000/svg">
<rect width="1920" height="1080" fill="#FBFBFF"/>
<g clip-path="url(#clip0)">
<rect width="1920" height="1080" fill="url(#paint0_linear)"/>
<path d="M439.202 29.7097L440.027 31.9832H442.697L440.537 33.3884L441.362 35.6619L439.202 34.2568L437.042 35.6619L437.867 33.3884L435.707 31.9832H438.377L439.202 29.7097Z" fill="#FFFCFC"/>
<path d="M958.575 562.742L959.4 565.016H962.069L959.909 566.421L960.735 568.694L958.575 567.289L956.415 568.694L957.24 566.421L955.08 565.016H957.749L958.575 562.742Z" fill="#FFFCFC"/>
<path d="M1112.92 589.065L1113.74 591.338H1116.41L1114.25 592.743L1115.08 595.017L1112.92 593.612L1110.76 595.017L1111.58 592.743L1109.42 591.338H1112.09L1112.92 589.065Z" fill="#FFFCFC"/>
<path d="M1301.56 564.935L1302.38 567.209H1305.05L1302.89 568.614L1303.72 570.888L1301.56 569.483L1299.4 570.888L1300.22 568.614L1298.06 567.209H1300.73L1301.56 564.935Z" fill="#FFFCFC"/>
<path d="M654.79 560.548L655.616 562.822H658.285L656.125 564.227L656.95 566.501L654.79 565.096L652.63 566.501L653.456 564.227L651.296 562.822H653.965L654.79 560.548Z" fill="#FFFCFC"/>
<path d="M1514.7 582.484L1515.52 584.757H1518.19L1516.03 586.163L1516.86 588.436L1514.7 587.031L1512.54 588.436L1513.36 586.163L1511.2 584.757H1513.87L1514.7 582.484Z" fill="#FFFCFC"/>
<path d="M1860.13 5.58064L1860.95 7.8542H1863.62L1861.46 9.25934L1862.29 11.5329L1860.13 10.1278L1857.97 11.5329L1858.79 9.25934L1856.63 7.8542H1859.3L1860.13 5.58064Z" fill="#FFFCFC"/>
<path d="M591.094 679L591.919 681.274H594.589L592.429 682.679L593.254 684.952L591.094 683.547L588.934 684.952L589.759 682.679L587.599 681.274H590.269L591.094 679Z" fill="#FFFCFC"/>
<path d="M740.536 584.677L741.361 586.951H744.031L741.871 588.356L742.696 590.63L740.536 589.225L738.376 590.63L739.201 588.356L737.041 586.951H739.711L740.536 584.677Z" fill="#FFFCFC"/>
<path d="M671.94 808.419L672.765 810.693H675.435L673.275 812.098L674.1 814.372L671.94 812.966L669.78 814.372L670.605 812.098L668.445 810.693H671.115L671.94 808.419Z" fill="#FFFCFC"/>
<path d="M757.685 663.645L758.51 665.919H761.18L759.02 667.324L759.845 669.597L757.685 668.192L755.525 669.597L756.35 667.324L754.19 665.919H756.86L757.685 663.645Z" fill="#FFFCFC"/>
<path d="M1899.33 249.065L1900.15 251.338H1902.82L1900.66 252.743L1901.49 255.017L1899.33 253.612L1897.17 255.017L1897.99 252.743L1895.83 251.338H1898.5L1899.33 249.065Z" fill="#FFFCFC"/>
<path d="M919.377 722.871L920.202 725.145H922.872L920.712 726.55L921.537 728.823L919.377 727.418L917.217 728.823L918.042 726.55L915.882 725.145H918.552L919.377 722.871Z" fill="#FFFCFC"/>
<path d="M0.674807 518.871L1.49985 521.145H4.16976L2.00976 522.55L2.8348 524.823L0.674807 523.418L-1.48519 524.823L-0.660145 522.55L-2.82014 521.145H-0.150238L0.674807 518.871Z" fill="#FFFCFC"/>
<path d="M299.559 229.323L300.384 231.596H303.054L300.894 233.001L301.719 235.275L299.559 233.87L297.399 235.275L298.224 233.001L296.064 231.596H298.734L299.559 229.323Z" fill="#FFFCFC"/>
<path d="M1823.38 288.548L1824.2 290.822H1826.87L1824.71 292.227L1825.54 294.501L1823.38 293.096L1821.22 294.501L1822.04 292.227L1819.88 290.822H1822.55L1823.38 288.548Z" fill="#FFFCFC"/>
<path d="M1223.16 670.226L1223.99 672.499H1226.66L1224.5 673.905L1225.32 676.178L1223.16 674.773L1221 676.178L1221.83 673.905L1219.67 672.499H1222.34L1223.16 670.226Z" fill="#FFFCFC"/>
<path d="M1419.15 455.258L1419.98 457.532H1422.65L1420.49 458.937L1421.31 461.21L1419.15 459.805L1416.99 461.21L1417.82 458.937L1415.66 457.532H1418.33L1419.15 455.258Z" fill="#FFFCFC"/>
<path d="M495.549 257.839L496.374 260.112H499.044L496.884 261.517L497.709 263.791L495.549 262.386L493.389 263.791L494.214 261.517L492.054 260.112H494.724L495.549 257.839Z" fill="#FFFCFC"/>
<path d="M1710.69 194.226L1711.51 196.499H1714.18L1712.02 197.904L1712.85 200.178L1710.69 198.773L1708.53 200.178L1709.35 197.904L1707.19 196.499H1709.86L1710.69 194.226Z" fill="#FFFCFC"/>
<path d="M417.153 632.935L417.978 635.209H420.648L418.488 636.614L419.313 638.888L417.153 637.483L414.993 638.888L415.818 636.614L413.658 635.209H416.328L417.153 632.935Z" fill="#FFFCFC"/>
<path d="M1816.03 170.097L1816.85 172.37H1819.52L1817.36 173.775L1818.19 176.049L1816.03 174.644L1813.87 176.049L1814.69 173.775L1812.53 172.37H1815.2L1816.03 170.097Z" fill="#FFFCFC"/>
<path d="M1431.4 67L1432.22 69.2736H1434.89L1432.73 70.6787L1433.56 72.9522L1431.4 71.5471L1429.24 72.9522L1430.06 70.6787L1427.9 69.2736H1430.57L1431.4 67Z" fill="#FFFCFC"/>
<path d="M1426.5 240.29L1427.33 242.564H1429.99L1427.83 243.969L1428.66 246.243L1426.5 244.837L1424.34 246.243L1425.17 243.969L1423.01 242.564H1425.67L1426.5 240.29Z" fill="#FFFCFC"/>
<path d="M1534.29 378.484L1535.12 380.757H1537.79L1535.63 382.163L1536.45 384.436L1534.29 383.031L1532.13 384.436L1532.96 382.163L1530.8 380.757H1533.47L1534.29 378.484Z" fill="#FFFCFC"/>
<path d="M1563.69 279.774L1564.52 282.048H1567.19L1565.03 283.453L1565.85 285.726L1563.69 284.321L1561.53 285.726L1562.36 283.453L1560.2 282.048H1562.87L1563.69 279.774Z" fill="#FFFCFC"/>
<path d="M1744.98 260.032L1745.81 262.306H1748.48L1746.32 263.711L1747.14 265.985L1744.98 264.579L1742.82 265.985L1743.65 263.711L1741.49 262.306H1744.16L1744.98 260.032Z" fill="#FFFCFC"/>
<path d="M1752.33 91.129L1753.16 93.4026H1755.83L1753.67 94.8077L1754.49 97.0813L1752.33 95.6761L1750.17 97.0813L1751 94.8077L1748.84 93.4026H1751.51L1752.33 91.129Z" fill="#FFFCFC"/>
<path d="M1597.99 29.7097L1598.82 31.9832H1601.49L1599.33 33.3884L1600.15 35.6619L1597.99 34.2568L1595.83 35.6619L1596.66 33.3884L1594.5 31.9832H1597.17L1597.99 29.7097Z" fill="#FFFCFC"/>
<path d="M1512.25 67L1513.07 69.2736H1515.74L1513.58 70.6787L1514.41 72.9522L1512.25 71.5471L1510.09 72.9522L1510.91 70.6787L1508.75 69.2736H1511.42L1512.25 67Z" fill="#FFFCFC"/>
<path d="M1789.08 60.4194L1789.91 62.6929H1792.58L1790.42 64.098L1791.24 66.3716L1789.08 64.9665L1786.92 66.3716L1787.75 64.098L1785.59 62.6929H1788.26L1789.08 60.4194Z" fill="#FFFCFC"/>
<path d="M1793.98 156.935L1794.81 159.209H1797.48L1795.32 160.614L1796.14 162.888L1793.98 161.483L1791.82 162.888L1792.65 160.614L1790.49 159.209H1793.16L1793.98 156.935Z" fill="#FFFCFC"/>
<path d="M191.765 589.065L192.59 591.338H195.26L193.1 592.743L193.925 595.017L191.765 593.612L189.605 595.017L190.43 592.743L188.27 591.338H190.94L191.765 589.065Z" fill="#FFFCFC"/>
<path d="M1865.03 547.387L1865.85 549.661H1868.52L1866.36 551.066L1867.19 553.339L1865.03 551.934L1862.87 553.339L1863.69 551.066L1861.53 549.661H1864.2L1865.03 547.387Z" fill="#FFFCFC"/>
<path d="M1541.64 505.71L1542.47 507.983H1545.14L1542.98 509.388L1543.8 511.662L1541.64 510.257L1539.48 511.662L1540.31 509.388L1538.15 507.983H1540.82L1541.64 505.71Z" fill="#FFFCFC"/>
<path d="M534.747 58.2258L535.572 60.4994H538.242L536.082 61.9045L536.907 64.178L534.747 62.7729L532.587 64.178L533.412 61.9045L531.252 60.4994H533.922L534.747 58.2258Z" fill="#FFFCFC"/>
<path d="M725.837 290.742L726.662 293.016H729.332L727.172 294.421L727.997 296.694L725.837 295.289L723.677 296.694L724.502 294.421L722.342 293.016H725.012L725.837 290.742Z" fill="#FFFCFC"/>
<path d="M1220.71 461.839L1221.54 464.112H1224.21L1222.05 465.517L1222.87 467.791L1220.71 466.386L1218.55 467.791L1219.38 465.517L1217.22 464.112H1219.89L1220.71 461.839Z" fill="#FFFCFC"/>
<path d="M1095.77 415.774L1096.59 418.048H1099.26L1097.1 419.453L1097.93 421.726L1095.77 420.321L1093.61 421.726L1094.43 419.453L1092.27 418.048H1094.94L1095.77 415.774Z" fill="#FFFCFC"/>
<path d="M1348.1 431.129L1348.93 433.403H1351.6L1349.44 434.808L1350.26 437.081L1348.1 435.676L1345.94 437.081L1346.77 434.808L1344.61 433.403H1347.28L1348.1 431.129Z" fill="#FFFCFC"/>
<path d="M818.932 385.065L819.757 387.338H822.427L820.267 388.743L821.092 391.017L818.932 389.612L816.772 391.017L817.597 388.743L815.437 387.338H818.107L818.932 385.065Z" fill="#FFFCFC"/>
<path d="M662.14 433.323L662.965 435.596H665.635L663.475 437.001L664.3 439.275L662.14 437.87L659.98 439.275L660.805 437.001L658.645 435.596H661.315L662.14 433.323Z" fill="#FFFCFC"/>
<path d="M791.983 435.516L792.808 437.79H795.478L793.318 439.195L794.143 441.468L791.983 440.063L789.823 441.468L790.648 439.195L788.488 437.79H791.158L791.983 435.516Z" fill="#FFFCFC"/>
<path d="M1406.9 367.516L1407.73 369.79H1410.4L1408.24 371.195L1409.06 373.468L1406.9 372.063L1404.74 373.468L1405.57 371.195L1403.41 369.79H1406.08L1406.9 367.516Z" fill="#FFFCFC"/>
<path d="M25.1735 91.129L25.9986 93.4026H28.6685L26.5085 94.8077L27.3335 97.0813L25.1735 95.6761L23.0135 97.0813L23.8386 94.8077L21.6786 93.4026H24.3485L25.1735 91.129Z" fill="#FFFCFC"/>
<path d="M1059.02 82.3548L1059.84 84.6284H1062.51L1060.35 86.0335L1061.18 88.3071L1059.02 86.9019L1056.86 88.3071L1057.68 86.0335L1055.52 84.6284H1058.19L1059.02 82.3548Z" fill="#FFFCFC"/>
<path d="M1139.86 38.4839L1140.69 40.7574H1143.36L1141.2 42.1626L1142.02 44.4361L1139.86 43.031L1137.7 44.4361L1138.53 42.1626L1136.37 40.7574H1139.04L1139.86 38.4839Z" fill="#FFFCFC"/>
<path d="M221.163 268.806L221.988 271.08H224.658L222.498 272.485L223.323 274.759L221.163 273.354L219.003 274.759L219.828 272.485L217.668 271.08H220.338L221.163 268.806Z" fill="#FFFCFC"/>
<path d="M424.503 91.129L425.328 93.4026H427.998L425.838 94.8077L426.663 97.0813L424.503 95.6761L422.343 97.0813L423.168 94.8077L421.008 93.4026H423.678L424.503 91.129Z" fill="#FFFCFC"/>
<path d="M1161.91 95.5161L1162.74 97.7897H1165.41L1163.25 99.1948L1164.07 101.468L1161.91 100.063L1159.75 101.468L1160.58 99.1948L1158.42 97.7897H1161.09L1161.91 95.5161Z" fill="#FFFCFC"/>
<path d="M1304.01 29.7097L1304.83 31.9832H1307.5L1305.34 33.3884L1306.17 35.6619L1304.01 34.2568L1301.85 35.6619L1302.67 33.3884L1300.51 31.9832H1303.18L1304.01 29.7097Z" fill="#FFFCFC"/>
<path d="M1132.52 306.097L1133.34 308.37H1136.01L1133.85 309.775L1134.68 312.049L1132.52 310.644L1130.36 312.049L1131.18 309.775L1129.02 308.37H1131.69L1132.52 306.097Z" fill="#FFFCFC"/>
<path d="M1198.66 387.258L1199.49 389.532H1202.16L1200 390.937L1200.82 393.21L1198.66 391.805L1196.5 393.21L1197.33 390.937L1195.17 389.532H1197.84L1198.66 387.258Z" fill="#FFFCFC"/>
<path d="M1272.16 428.935L1272.98 431.209H1275.65L1273.49 432.614L1274.32 434.888L1272.16 433.483L1270 434.888L1270.82 432.614L1268.66 431.209H1271.33L1272.16 428.935Z" fill="#FFFCFC"/>
<path d="M1169.26 161.323L1170.09 163.596H1172.76L1170.6 165.001L1171.42 167.275L1169.26 165.87L1167.1 167.275L1167.93 165.001L1165.77 163.596H1168.44L1169.26 161.323Z" fill="#FFFCFC"/>
<path d="M500.449 328.032L501.274 330.306H503.944L501.784 331.711L502.609 333.985L500.449 332.579L498.289 333.985L499.114 331.711L496.954 330.306H499.624L500.449 328.032Z" fill="#FFFCFC"/>
<path d="M1250.11 40.6774L1250.93 42.951H1253.6L1251.44 44.3561L1252.27 46.6297L1250.11 45.2245L1247.95 46.6297L1248.77 44.3561L1246.61 42.951H1249.28L1250.11 40.6774Z" fill="#FFFCFC"/>
<path d="M505.348 176.677L506.173 178.951H508.843L506.683 180.356L507.508 182.63L505.348 181.225L503.188 182.63L504.013 180.356L501.853 178.951H504.523L505.348 176.677Z" fill="#FFFCFC"/>
<path d="M1103.12 148.161L1103.94 150.435H1106.61L1104.45 151.84L1105.28 154.114L1103.12 152.708L1100.96 154.114L1101.78 151.84L1099.62 150.435H1102.29L1103.12 148.161Z" fill="#FFFCFC"/>
<path d="M1279.51 132.806L1280.33 135.08H1283L1280.84 136.485L1281.67 138.759L1279.51 137.354L1277.35 138.759L1278.17 136.485L1276.01 135.08H1278.68L1279.51 132.806Z" fill="#FFFCFC"/>
<path d="M1306.46 200.806L1307.28 203.08H1309.95L1307.79 204.485L1308.62 206.759L1306.46 205.354L1304.3 206.759L1305.12 204.485L1302.96 203.08H1305.63L1306.46 200.806Z" fill="#FFFCFC"/>
<path d="M1215.81 253.452L1216.64 255.725H1219.31L1217.15 257.13L1217.97 259.404L1215.81 257.999L1213.65 259.404L1214.48 257.13L1212.32 255.725H1214.99L1215.81 253.452Z" fill="#FFFCFC"/>
<path d="M1235.41 86.7419L1236.24 89.0155H1238.9L1236.74 90.4206L1237.57 92.6942L1235.41 91.2891L1233.25 92.6942L1234.08 90.4206L1231.92 89.0155H1234.58L1235.41 86.7419Z" fill="#FFFCFC"/>
<path d="M669.49 130.613L670.315 132.886H672.985L670.825 134.292L671.65 136.565L669.49 135.16L667.33 136.565L668.155 134.292L665.995 132.886H668.665L669.49 130.613Z" fill="#FFFCFC"/>
<path d="M230.963 5.58064L231.788 7.8542H234.458L232.298 9.25934L233.123 11.5329L230.963 10.1278L228.803 11.5329L229.628 9.25934L227.468 7.8542H230.138L230.963 5.58064Z" fill="#FFFCFC"/>
<path d="M537.197 115.258L538.022 117.532H540.692L538.532 118.937L539.357 121.21L537.197 119.805L535.037 121.21L535.862 118.937L533.702 117.532H536.372L537.197 115.258Z" fill="#FFFCFC"/>
<path d="M331.407 216.161L332.232 218.435H334.902L332.742 219.84L333.567 222.114L331.407 220.708L329.247 222.114L330.072 219.84L327.912 218.435H330.582L331.407 216.161Z" fill="#FFFCFC"/>
<path d="M826.281 553.968L827.107 556.241H829.776L827.616 557.646L828.441 559.92L826.281 558.515L824.121 559.92L824.947 557.646L822.787 556.241H825.456L826.281 553.968Z" fill="#FFFCFC"/>
<path d="M738.086 365.323L738.911 367.596H741.581L739.421 369.001L740.246 371.275L738.086 369.87L735.926 371.275L736.751 369.001L734.591 367.596H737.261L738.086 365.323Z" fill="#FFFCFC"/>
<path d="M27.6234 257.839L28.4484 260.112H31.1183L28.9583 261.517L29.7834 263.791L27.6234 262.386L25.4634 263.791L26.2884 261.517L24.1284 260.112H26.7983L27.6234 257.839Z" fill="#FFFCFC"/>
<path d="M500.449 485.968L501.274 488.241H503.944L501.784 489.646L502.609 491.92L500.449 490.515L498.289 491.92L499.114 489.646L496.954 488.241H499.624L500.449 485.968Z" fill="#FFFCFC"/>
<path d="M69.2712 -1L70.0963 1.27356H72.7662L70.6062 2.67869L71.4312 4.95225L69.2712 3.54711L67.1112 4.95225L67.9363 2.67869L65.7763 1.27356H68.4462L69.2712 -1Z" fill="#FFFCFC"/>
<path d="M319.158 34.0968L319.983 36.3703H322.653L320.493 37.7755L321.318 40.049L319.158 38.6439L316.998 40.049L317.823 37.7755L315.663 36.3703H318.333L319.158 34.0968Z" fill="#FFFCFC"/>
<path d="M358.356 126.226L359.181 128.499H361.851L359.691 129.904L360.516 132.178L358.356 130.773L356.196 132.178L357.021 129.904L354.861 128.499H357.531L358.356 126.226Z" fill="#FFFCFC"/>
<path d="M86.4203 251.258L87.2453 253.532H89.9152L87.7552 254.937L88.5803 257.21L86.4203 255.805L84.2603 257.21L85.0853 254.937L82.9253 253.532H85.5952L86.4203 251.258Z" fill="#FFFCFC"/>
<path d="M125.618 34.0968L126.443 36.3703H129.113L126.953 37.7755L127.778 40.049L125.618 38.6439L123.458 40.049L124.283 37.7755L122.123 36.3703H124.793L125.618 34.0968Z" fill="#FFFCFC"/>
<path d="M368.156 268.806L368.981 271.08H371.65L369.49 272.485L370.316 274.759L368.156 273.354L365.996 274.759L366.821 272.485L364.661 271.08H367.33L368.156 268.806Z" fill="#FFFCFC"/>
<path d="M566.595 402.613L567.42 404.886H570.09L567.93 406.292L568.755 408.565L566.595 407.16L564.435 408.565L565.26 406.292L563.1 404.886H565.77L566.595 402.613Z" fill="#FFFCFC"/>
<path d="M1649.44 203L1650.26 205.274H1652.93L1650.77 206.679L1651.6 208.952L1649.44 207.547L1647.28 208.952L1648.1 206.679L1645.94 205.274H1648.61L1649.44 203Z" fill="#FFFCFC"/>
<path d="M147.667 170.097L148.492 172.37H151.162L149.002 173.775L149.827 176.049L147.667 174.644L145.507 176.049L146.332 173.775L144.172 172.37H146.842L147.667 170.097Z" fill="#FFFCFC"/>
<path d="M877.729 102.097L878.554 104.37H881.224L879.064 105.775L879.889 108.049L877.729 106.644L875.569 108.049L876.394 105.775L874.234 104.37H876.904L877.729 102.097Z" fill="#FFFCFC"/>
<path d="M951.225 77.9677L952.05 80.2413H954.72L952.56 81.6464L953.385 83.92L951.225 82.5149L949.065 83.92L949.89 81.6464L947.73 80.2413H950.4L951.225 77.9677Z" fill="#FFFCFC"/>
<path d="M698.888 62.6129L699.713 64.8865H702.383L700.223 66.2916L701.048 68.5651L698.888 67.16L696.728 68.5651L697.553 66.2916L695.393 64.8865H698.063L698.888 62.6129Z" fill="#FFFCFC"/>
<path d="M431.852 257.839L432.677 260.112H435.347L433.187 261.517L434.012 263.791L431.852 262.386L429.692 263.791L430.517 261.517L428.357 260.112H431.027L431.852 257.839Z" fill="#FFFCFC"/>
<path d="M791.983 58.2258L792.808 60.4994H795.478L793.318 61.9045L794.143 64.178L791.983 62.7729L789.823 64.178L790.648 61.9045L788.488 60.4994H791.158L791.983 58.2258Z" fill="#FFFDFD"/>
<path d="M627.842 152.548L628.667 154.822H631.337L629.177 156.227L630.002 158.501L627.842 157.095L625.682 158.501L626.507 156.227L624.347 154.822H627.017L627.842 152.548Z" fill="#FFFCFC"/>
<path d="M493.099 216.161L493.924 218.435H496.594L494.434 219.84L495.259 222.114L493.099 220.708L490.939 222.114L491.764 219.84L489.604 218.435H492.274L493.099 216.161Z" fill="#FFFCFC"/>
<path d="M693.988 729.452L694.813 731.725H697.483L695.323 733.13L696.148 735.404L693.988 733.999L691.828 735.404L692.653 733.13L690.493 731.725H693.163L693.988 729.452Z" fill="#FFFCFC"/>
<path d="M598.443 222.742L599.268 225.015H601.938L599.778 226.421L600.603 228.694L598.443 227.289L596.283 228.694L597.108 226.421L594.948 225.015H597.618L598.443 222.742Z" fill="#FFFCFC"/>
<path d="M57.0219 319.258L57.8469 321.532H60.5168L58.3568 322.937L59.1819 325.21L57.0219 323.805L54.8619 325.21L55.6869 322.937L53.5269 321.532H56.1968L57.0219 319.258Z" fill="#FFFCFC"/>
<path d="M573.945 512.29L574.77 514.564H577.44L575.28 515.969L576.105 518.243L573.945 516.837L571.785 518.243L572.61 515.969L570.45 514.564H573.12L573.945 512.29Z" fill="#FFFCFC"/>
<path d="M622.942 36.2903L623.767 38.5639H626.437L624.277 39.969L625.102 42.2426L622.942 40.8374L620.782 42.2426L621.607 39.969L619.447 38.5639H622.117L622.942 36.2903Z" fill="#FFFCFC"/>
<path d="M951.225 424.548L952.05 422.275H954.72L952.56 420.87L953.385 418.596L951.225 420.001L949.065 418.596L949.89 420.87L947.73 422.275H950.4L951.225 424.548Z" fill="#FFFCFC"/>
<path d="M777.284 150.355L778.109 152.628H780.779L778.619 154.034L779.444 156.307L777.284 154.902L775.124 156.307L775.949 154.034L773.789 152.628H776.459L777.284 150.355Z" fill="#FFFDFD"/>
<path d="M718.487 209.581L719.312 211.854H721.982L719.822 213.259L720.647 215.533L718.487 214.128L716.327 215.533L717.152 213.259L714.992 211.854H717.662L718.487 209.581Z" fill="#FFFDFD"/>
<path d="M1703.34 238.097L1704.16 240.37H1706.83L1704.67 241.775L1705.5 244.049L1703.34 242.644L1701.18 244.049L1702 241.775L1699.84 240.37H1702.51L1703.34 238.097Z" fill="#FFFDFD"/>
<path d="M1433.85 349.968L1434.67 352.241H1437.34L1435.18 353.646L1436.01 355.92L1433.85 354.515L1431.69 355.92L1432.51 353.646L1430.35 352.241H1433.02L1433.85 349.968Z" fill="#FFFDFD"/>
<path d="M1340.75 121.839L1341.58 124.112H1344.25L1342.09 125.517L1342.91 127.791L1340.75 126.386L1338.59 127.791L1339.42 125.517L1337.26 124.112H1339.93L1340.75 121.839Z" fill="#FFFDFD"/>
<path d="M591.094 244.677L591.919 246.951H594.589L592.429 248.356L593.254 250.63L591.094 249.225L588.934 250.63L589.759 248.356L587.599 246.951H590.269L591.094 244.677Z" fill="#FFFBFB"/>
<path d="M1571.04 187.645L1571.87 189.919H1574.54L1572.38 191.324L1573.2 193.597L1571.04 192.192L1568.88 193.597L1569.71 191.324L1567.55 189.919H1570.22L1571.04 187.645Z" fill="#FFF9F9"/>
<g filter="url(#filter0_d)">
<ellipse cx="979" cy="177.5" rx="64" ry="60.5" fill="#F0EFFF"/>
</g>
<ellipse opacity="0.05" cx="996.582" cy="142.544" rx="11.2527" ry="10.7556" fill="#4B3BA8"/>
<ellipse opacity="0.05" cx="1016.27" cy="192.289" rx="15.4725" ry="14.7889" fill="#224499"/>
<ellipse opacity="0.05" cx="955.088" cy="218.506" rx="7.73626" ry="7.39444" fill="#2B38AB"/>
<g opacity="0.2">
<path d="M208.216 65.3524C208.216 82.1156 191.442 95.7048 170.75 95.7048C150.057 95.7048 133.283 82.1156 133.283 65.3524C133.283 48.5892 150.057 35 170.75 35C191.442 35 208.216 48.5892 208.216 65.3524Z" fill="#A2AAF5"/>
<path d="M208.216 65.3524C208.216 82.1156 191.442 95.7048 170.75 95.7048C150.057 95.7048 133.283 82.1156 133.283 65.3524C133.283 48.5892 150.057 35 170.75 35C191.442 35 208.216 48.5892 208.216 65.3524Z" fill="#A2AAF5"/>
<path d="M208.216 65.3524C208.216 82.1156 191.442 95.7048 170.75 95.7048C150.057 95.7048 133.283 82.1156 133.283 65.3524C133.283 48.5892 150.057 35 170.75 35C191.442 35 208.216 48.5892 208.216 65.3524Z" fill="#A2AAF5"/>
<path d="M284.441 120.824C284.441 137.587 267.667 151.176 246.975 151.176C226.283 151.176 209.508 137.587 209.508 120.824C209.508 104.061 226.283 90.4717 246.975 90.4717C267.667 90.4717 284.441 104.061 284.441 120.824Z" fill="#A2AAF5"/>
<path d="M218.552 111.404C218.552 128.168 201.777 141.757 181.085 141.757C160.393 141.757 143.619 128.168 143.619 111.404C143.619 94.6412 160.393 81.0519 181.085 81.0519C201.777 81.0519 218.552 94.6412 218.552 111.404Z" fill="#A2AAF5"/>
<path d="M325.784 90.4717C325.784 107.235 309.009 120.824 288.317 120.824C267.625 120.824 250.851 107.235 250.851 90.4717C250.851 73.7085 267.625 60.1192 288.317 60.1192C309.009 60.1192 325.784 73.7085 325.784 90.4717Z" fill="#A2AAF5"/>
<path d="M274.106 78.9587C274.106 95.7218 257.331 109.311 236.639 109.311C215.947 109.311 199.173 95.7218 199.173 78.9587C199.173 62.1955 215.947 48.6063 236.639 48.6063C257.331 48.6063 274.106 62.1955 274.106 78.9587Z" fill="#A2AAF5"/>
<path d="M165.582 96.7515C165.582 113.515 148.807 127.104 128.115 127.104C107.423 127.104 90.6487 113.515 90.6487 96.7515C90.6487 79.9883 107.423 66.399 128.115 66.399C148.807 66.399 165.582 79.9883 165.582 96.7515Z" fill="#A2AAF5"/>
</g>
<g opacity="0.2">
<path d="M1263.97 306.999C1263.97 323.763 1247.2 337.352 1226.51 337.352C1205.81 337.352 1189.04 323.763 1189.04 306.999C1189.04 290.236 1205.81 276.647 1226.51 276.647C1247.2 276.647 1263.97 290.236 1263.97 306.999Z" fill="#A2AAF5"/>
<path d="M1263.97 306.999C1263.97 323.763 1247.2 337.352 1226.51 337.352C1205.81 337.352 1189.04 323.763 1189.04 306.999C1189.04 290.236 1205.81 276.647 1226.51 276.647C1247.2 276.647 1263.97 290.236 1263.97 306.999Z" fill="#A2AAF5"/>
<path d="M1263.97 306.999C1263.97 323.763 1247.2 337.352 1226.51 337.352C1205.81 337.352 1189.04 323.763 1189.04 306.999C1189.04 290.236 1205.81 276.647 1226.51 276.647C1247.2 276.647 1263.97 290.236 1263.97 306.999Z" fill="#A2AAF5"/>
<path d="M1340.2 362.471C1340.2 379.234 1323.42 392.824 1302.73 392.824C1282.04 392.824 1265.26 379.234 1265.26 362.471C1265.26 345.708 1282.04 332.119 1302.73 332.119C1323.42 332.119 1340.2 345.708 1340.2 362.471Z" fill="#A2AAF5"/>
<path d="M1274.31 353.051C1274.31 369.815 1257.53 383.404 1236.84 383.404C1216.15 383.404 1199.38 369.815 1199.38 353.051C1199.38 336.288 1216.15 322.699 1236.84 322.699C1257.53 322.699 1274.31 336.288 1274.31 353.051Z" fill="#A2AAF5"/>
<path d="M1381.54 332.119C1381.54 348.882 1364.77 362.471 1344.07 362.471C1323.38 362.471 1306.61 348.882 1306.61 332.119C1306.61 315.356 1323.38 301.766 1344.07 301.766C1364.77 301.766 1381.54 315.356 1381.54 332.119Z" fill="#A2AAF5"/>
<path d="M1329.86 320.606C1329.86 337.369 1313.09 350.958 1292.4 350.958C1271.7 350.958 1254.93 337.369 1254.93 320.606C1254.93 303.843 1271.7 290.253 1292.4 290.253C1313.09 290.253 1329.86 303.843 1329.86 320.606Z" fill="#A2AAF5"/>
<path d="M1221.34 338.399C1221.34 355.162 1204.56 368.751 1183.87 368.751C1163.18 368.751 1146.41 355.162 1146.41 338.399C1146.41 321.635 1163.18 308.046 1183.87 308.046C1204.56 308.046 1221.34 321.635 1221.34 338.399Z" fill="#A2AAF5"/>
</g>
<g opacity="0.2">
<path d="M629.108 309.323C629.108 326.086 612.334 339.675 591.642 339.675C570.949 339.675 554.175 326.086 554.175 309.323C554.175 292.56 570.949 278.971 591.642 278.971C612.334 278.971 629.108 292.56 629.108 309.323Z" fill="#A2AAF5"/>
<path d="M629.108 309.323C629.108 326.086 612.334 339.675 591.642 339.675C570.949 339.675 554.175 326.086 554.175 309.323C554.175 292.56 570.949 278.971 591.642 278.971C612.334 278.971 629.108 292.56 629.108 309.323Z" fill="#A2AAF5"/>
<path d="M629.108 309.323C629.108 326.086 612.334 339.675 591.642 339.675C570.949 339.675 554.175 326.086 554.175 309.323C554.175 292.56 570.949 278.971 591.642 278.971C612.334 278.971 629.108 292.56 629.108 309.323Z" fill="#A2AAF5"/>
<path d="M705.333 364.795C705.333 381.558 688.559 395.147 667.867 395.147C647.174 395.147 630.4 381.558 630.4 364.795C630.4 348.031 647.174 334.442 667.867 334.442C688.559 334.442 705.333 348.031 705.333 364.795Z" fill="#A2AAF5"/>
<path d="M639.444 355.375C639.444 372.138 622.669 385.727 601.977 385.727C581.285 385.727 564.511 372.138 564.511 355.375C564.511 338.612 581.285 325.023 601.977 325.023C622.669 325.023 639.444 338.612 639.444 355.375Z" fill="#A2AAF5"/>
<path d="M746.676 334.442C746.676 351.205 729.901 364.795 709.209 364.795C688.517 364.795 671.742 351.205 671.742 334.442C671.742 317.679 688.517 304.09 709.209 304.09C729.901 304.09 746.676 317.679 746.676 334.442Z" fill="#A2AAF5"/>
<path d="M694.998 322.929C694.998 339.692 678.223 353.282 657.531 353.282C636.839 353.282 620.064 339.692 620.064 322.929C620.064 306.166 636.839 292.577 657.531 292.577C678.223 292.577 694.998 306.166 694.998 322.929Z" fill="#A2AAF5"/>
<path d="M586.474 340.722C586.474 357.485 569.699 371.074 549.007 371.074C528.315 371.074 511.541 357.485 511.541 340.722C511.541 323.959 528.315 310.37 549.007 310.37C569.699 310.37 586.474 323.959 586.474 340.722Z" fill="#A2AAF5"/>
</g>
<g opacity="0.2">
<path d="M247.014 342.543C247.014 390.486 212.626 429.351 170.207 429.351C127.788 429.351 93.4005 390.486 93.4005 342.543C93.4005 294.601 127.788 255.735 170.207 255.735C212.626 255.735 247.014 294.601 247.014 342.543Z" fill="#A2AAF5"/>
<path d="M247.014 342.543C247.014 390.486 212.626 429.351 170.207 429.351C127.788 429.351 93.4005 390.486 93.4005 342.543C93.4005 294.601 127.788 255.735 170.207 255.735C212.626 255.735 247.014 294.601 247.014 342.543Z" fill="#A2AAF5"/>
<path d="M247.014 342.543C247.014 390.486 212.626 429.351 170.207 429.351C127.788 429.351 93.4005 390.486 93.4005 342.543C93.4005 294.601 127.788 255.735 170.207 255.735C212.626 255.735 247.014 294.601 247.014 342.543Z" fill="#A2AAF5"/>
<path d="M403.275 501.192C403.275 549.135 368.888 588 326.469 588C284.049 588 249.662 549.135 249.662 501.192C249.662 453.249 284.049 414.384 326.469 414.384C368.888 414.384 403.275 453.249 403.275 501.192Z" fill="#A2AAF5"/>
<path d="M268.202 474.252C268.202 522.194 233.814 561.06 191.395 561.06C148.976 561.06 114.589 522.194 114.589 474.252C114.589 426.309 148.976 387.444 191.395 387.444C233.814 387.444 268.202 426.309 268.202 474.252Z" fill="#A2AAF5"/>
<path d="M488.027 414.384C488.027 462.327 453.64 501.192 411.221 501.192C368.801 501.192 334.414 462.327 334.414 414.384C334.414 366.442 368.801 327.576 411.221 327.576C453.64 327.576 488.027 366.442 488.027 414.384Z" fill="#A2AAF5"/>
<path d="M382.087 381.457C382.087 429.4 347.7 468.265 305.281 468.265C262.861 468.265 228.474 429.4 228.474 381.457C228.474 333.514 262.861 294.649 305.281 294.649C347.7 294.649 382.087 333.514 382.087 381.457Z" fill="#A2AAF5"/>
<path d="M159.613 432.344C159.613 480.287 125.226 519.152 82.8065 519.152C40.3874 519.152 6 480.287 6 432.344C6 384.402 40.3874 345.537 82.8065 345.537C125.226 345.537 159.613 384.402 159.613 432.344Z" fill="#A2AAF5"/>
</g>
<g opacity="0.2">
<path d="M1588.46 107.176C1588.46 123.939 1571.69 137.528 1550.99 137.528C1530.3 137.528 1513.53 123.939 1513.53 107.176C1513.53 90.4128 1530.3 76.8235 1550.99 76.8235C1571.69 76.8235 1588.46 90.4128 1588.46 107.176Z" fill="#A2AAF5"/>
<path d="M1588.46 107.176C1588.46 123.939 1571.69 137.528 1550.99 137.528C1530.3 137.528 1513.53 123.939 1513.53 107.176C1513.53 90.4128 1530.3 76.8235 1550.99 76.8235C1571.69 76.8235 1588.46 90.4128 1588.46 107.176Z" fill="#A2AAF5"/>
<path d="M1588.46 107.176C1588.46 123.939 1571.69 137.528 1550.99 137.528C1530.3 137.528 1513.53 123.939 1513.53 107.176C1513.53 90.4128 1530.3 76.8235 1550.99 76.8235C1571.69 76.8235 1588.46 90.4128 1588.46 107.176Z" fill="#A2AAF5"/>
<path d="M1664.68 162.648C1664.68 179.411 1647.91 193 1627.22 193C1606.53 193 1589.75 179.411 1589.75 162.648C1589.75 145.884 1606.53 132.295 1627.22 132.295C1647.91 132.295 1664.68 145.884 1664.68 162.648Z" fill="#A2AAF5"/>
<path d="M1598.8 153.228C1598.8 169.991 1582.02 183.58 1561.33 183.58C1540.64 183.58 1523.86 169.991 1523.86 153.228C1523.86 136.465 1540.64 122.875 1561.33 122.875C1582.02 122.875 1598.8 136.465 1598.8 153.228Z" fill="#A2AAF5"/>
<path d="M1706.03 132.295C1706.03 149.058 1689.25 162.648 1668.56 162.648C1647.87 162.648 1631.09 149.058 1631.09 132.295C1631.09 115.532 1647.87 101.943 1668.56 101.943C1689.25 101.943 1706.03 115.532 1706.03 132.295Z" fill="#A2AAF5"/>
<path d="M1654.35 120.782C1654.35 137.545 1637.57 151.135 1616.88 151.135C1596.19 151.135 1579.42 137.545 1579.42 120.782C1579.42 104.019 1596.19 90.4298 1616.88 90.4298C1637.57 90.4298 1654.35 104.019 1654.35 120.782Z" fill="#A2AAF5"/>
<path d="M1545.83 138.575C1545.83 155.338 1529.05 168.927 1508.36 168.927C1487.67 168.927 1470.89 155.338 1470.89 138.575C1470.89 121.812 1487.67 108.223 1508.36 108.223C1529.05 108.223 1545.83 121.812 1545.83 138.575Z" fill="#A2AAF5"/>
</g>
<g opacity="0.2">
<path d="M1728.36 354.433C1728.36 390.977 1701.02 420.601 1667.29 420.601C1633.57 420.601 1606.22 390.977 1606.22 354.433C1606.22 317.889 1633.57 288.265 1667.29 288.265C1701.02 288.265 1728.36 317.889 1728.36 354.433Z" fill="#A2AAF5"/>
<path d="M1728.36 354.433C1728.36 390.977 1701.02 420.601 1667.29 420.601C1633.57 420.601 1606.22 390.977 1606.22 354.433C1606.22 317.889 1633.57 288.265 1667.29 288.265C1701.02 288.265 1728.36 317.889 1728.36 354.433Z" fill="#A2AAF5"/>
<path d="M1728.36 354.433C1728.36 390.977 1701.02 420.601 1667.29 420.601C1633.57 420.601 1606.22 390.977 1606.22 354.433C1606.22 317.889 1633.57 288.265 1667.29 288.265C1701.02 288.265 1728.36 317.889 1728.36 354.433Z" fill="#A2AAF5"/>
<path d="M1852.61 475.361C1852.61 511.905 1825.27 541.529 1791.54 541.529C1757.81 541.529 1730.47 511.905 1730.47 475.361C1730.47 438.817 1757.81 409.193 1791.54 409.193C1825.27 409.193 1852.61 438.817 1852.61 475.361Z" fill="#A2AAF5"/>
<path d="M1745.21 454.826C1745.21 491.37 1717.87 520.994 1684.14 520.994C1650.41 520.994 1623.07 491.37 1623.07 454.826C1623.07 418.282 1650.41 388.658 1684.14 388.658C1717.87 388.658 1745.21 418.282 1745.21 454.826Z" fill="#A2AAF5"/>
<path d="M1920 409.193C1920 445.737 1892.66 475.361 1858.93 475.361C1825.2 475.361 1797.86 445.737 1797.86 409.193C1797.86 372.649 1825.2 343.025 1858.93 343.025C1892.66 343.025 1920 372.649 1920 409.193Z" fill="#A2AAF5"/>
<path d="M1835.76 384.095C1835.76 420.638 1808.42 450.263 1774.69 450.263C1740.97 450.263 1713.62 420.638 1713.62 384.095C1713.62 347.551 1740.97 317.926 1774.69 317.926C1808.42 317.926 1835.76 347.551 1835.76 384.095Z" fill="#A2AAF5"/>
<path d="M1658.87 422.883C1658.87 459.427 1631.53 489.051 1597.8 489.051C1564.07 489.051 1536.73 459.427 1536.73 422.883C1536.73 386.339 1564.07 356.715 1597.8 356.715C1631.53 356.715 1658.87 386.339 1658.87 422.883Z" fill="#A2AAF5"/>
</g>
<path d="M100.852 418.17C61.3854 515.759 5.79925 668.485 0 696.298V936H1921V418.17L1850.93 646.894L1701.11 334L1524.72 613.957L1386.99 454.766L1225.09 709.106L1080.11 546.255L910.965 791.447L780.482 665.191L700.742 791.447L509.85 535.277L430.111 681.66L287.546 454.766L210.223 613.957L100.852 418.17Z" fill="#747FB8"/>
<path d="M100.852 432.809C48.025 504.17 5.79925 703.251 0 731.064V936H1921V500.511L1872.97 573.702L1853.76 646.894L1824.95 613.957L1798.54 542.596L1702.49 341.319L1635.25 542.596L1522.39 613.957L1469.56 555.404L1383.12 465.745L1327.89 646.894L1296.67 688.979L1227.04 709.106L1171.81 678L1087.77 593.83L1030.14 731.064L919.679 837.191L828.431 780.468L782.807 678L715.572 780.468H693.961L588.306 731.064L501.861 542.596L446.632 646.894L432.225 678L343.379 646.894L285.749 465.745L230.52 573.702L208.909 613.957L148.877 593.83L100.852 432.809Z" fill="#374592"/>
<path d="M105.655 604.809C52.8275 676.17 5.79925 703.251 0 731.064V936H1921V634.085L1870.57 720.085L1796.13 646.894L1748.11 555.404L1690.48 485.872L1661.66 656.043L1563.21 767.66H1464.76L1385.52 634.085L1354.3 685.319L1277.46 753.021L1263.06 811.574L1150.2 780.468L1080.56 685.319L982.111 811.574L864.45 879.277L828.431 811.574L782.807 780.468L737.184 837.191V892.085L693.961 904.894L585.905 753.021L513.867 665.191L492.256 709.106L465.842 780.468L427.422 855.489L295.354 656.043L288.15 590.17L211.31 767.66L105.655 604.809Z" fill="#0F1D67"/>
<path d="M100.852 648.723C48.025 720.085 5.79925 695.932 0 723.745V928.681H1921V657.872L1899.39 723.745L1856.17 762.17L1776.92 657.872L1738.5 592L1716.89 533.447L1690.48 701.787L1584.82 820.723H1435.95L1378.32 681.66L1347.1 723.745L1323.09 785.957L1277.46 820.723L1140.59 851.83L1082.96 723.745L989.315 862.809L866.851 906.723L806.82 837.191L782.807 773.149L758.795 837.191L737.184 897.574H686.757L590.707 820.723L530.676 701.787H518.67L492.256 851.83L439.429 897.574L324.169 785.957L276.144 657.872L264.137 736.553L206.507 820.723L100.852 648.723Z" fill="#151D43"/>
<path d="M0 937L74.0985 870L93.2207 926.194L150.587 870L174.49 926.194L227.076 882.968L253.369 926.194L301.175 882.968L332.248 937L372.883 900.258L396.786 937L449.372 900.258L480.445 937L530.641 900.258L552.153 926.194L595.178 900.258L604.739 917.548L652.545 900.258L666.887 926.194L709.911 900.258L731.424 937L784.01 900.258L803.132 937L855.718 917.548V926.194L915.475 900.258L932.207 937L989.574 900.258L1020.65 937L1070.84 900.258L1106.7 937L1144.94 900.258L1173.62 937L1207.09 900.258L1250.11 937L1297.92 882.968L1340.94 937L1403.09 900.258L1422.21 926.194L1460.46 882.968L1498.7 937L1536.95 900.258L1572.8 937L1608.65 900.258L1639.73 937L1689.92 900.258L1718.61 937L1773.58 900.258L1790.32 937L1833.34 900.258L1857.24 937L1890.71 882.968L1917 937H1857.24H1790.32H1718.61H1639.73H1572.8H1498.7H1340.94H1250.11H1173.62H1106.7H1020.65H932.207H803.132H731.424H480.445H396.786H332.248H0Z" fill="#063801"/>
<rect x="-3" y="943" width="1923" height="115" fill="#7591DB"/>
<ellipse opacity="0.25" rx="21.6338" ry="1" transform="matrix(1 0 0 -1 1283.01 959)" fill="#FFFCFC"/>
<ellipse opacity="0.25" rx="21.6338" ry="1" transform="matrix(1 0 0 -1 660.435 964)" fill="#FFFCFC"/>
<ellipse opacity="0.25" rx="21.6338" ry="1" transform="matrix(1 0 0 -1 352.755 963)" fill="#FFFCFC"/>
<ellipse opacity="0.25" rx="21.6338" ry="1" transform="matrix(1 0 0 -1 364.774 1010)" fill="#FFFCFC"/>
<ellipse opacity="0.25" rx="21.6338" ry="1" transform="matrix(1 0 0 -1 88.3425 957)" fill="#FFFCFC"/>
<ellipse opacity="0.25" cx="1799.81" cy="952" rx="21.6338" ry="1" fill="#FFFCFC"/>
<ellipse opacity="0.25" rx="36.0563" ry="2" transform="matrix(1 0 0 -1 1309.45 999)" fill="#FFFCFC"/>
<ellipse opacity="0.25" rx="36.0563" ry="2" transform="matrix(1 0 0 -1 583.515 994)" fill="#FFFCFC"/>
<ellipse opacity="0.25" rx="36.0563" ry="2" transform="matrix(1 0 0 -1 220.549 1014)" fill="#FFFCFC"/>
<ellipse opacity="0.25" rx="36.0563" ry="2" transform="matrix(1 0 0 -1 1847.89 1015)" fill="#FFFCFC"/>
<ellipse opacity="0.25" rx="36.0563" ry="2" transform="matrix(1 0 0 -1 1609.92 1011)" fill="#FFFCFC"/>
<ellipse opacity="0.25" rx="48.075" ry="3" transform="matrix(1 0 0 -1 1427.23 1031)" fill="#FFFCFC"/>
<ellipse opacity="0.25" rx="48.075" ry="3" transform="matrix(1 0 0 -1 516.21 1034)" fill="#FFFCFC"/>
<ellipse opacity="0.25" rx="48.075" ry="3" transform="matrix(1 0 0 -1 66.7088 1051)" fill="#FFFCFC"/>
<ellipse opacity="0.25" rx="48.075" ry="3" transform="matrix(1 0 0 -1 1597.9 1055)" fill="#FFFCFC"/>
<ellipse opacity="0.25" rx="48.075" ry="3" transform="matrix(1 0 0 -1 1847.89 1044)" fill="#FFFCFC"/>
<ellipse opacity="0.25" cx="1737.32" cy="1002" rx="21.6338" ry="1" fill="#FFFCFC"/>
<ellipse opacity="0.25" cx="1494.54" cy="969" rx="21.6338" ry="1" fill="#FFFCFC"/>
<ellipse opacity="0.25" cx="1453.67" cy="997" rx="21.6338" ry="1" fill="#FFFCFC"/>
<ellipse opacity="0.25" cx="1304.64" cy="1043" rx="21.6338" ry="1" fill="#FFFCFC"/>
<path opacity="0.35" d="M893.413 946.73C881.991 944.502 907.391 944.554 921.518 944.859L925.242 945.618C944.785 945.448 990.106 945.134 1015.05 945.234C1046.22 945.359 1007.48 948.923 967.567 949.011C927.656 949.099 983.756 950.068 1043.52 954.276C1102.46 958.425 1031.81 954.337 985.589 954.045C1004.07 954.432 1034.51 955.485 1059.65 958.06C1110.04 963.222 1043.44 957.995 987.319 957.77C931.201 957.545 1012.84 959.856 1074.45 965.311C1136.05 970.766 1055.12 965.233 992.14 964.981C929.164 964.728 1023.89 967.34 1126.56 976.679C1229.24 986.018 1084.22 974.277 1002.98 981.391C921.754 988.505 1050.31 984.309 1146.85 989.408C1243.38 994.507 1109.39 990.993 1042.55 996.429C975.696 1001.86 1091.76 998.362 1183.36 1001.46C1274.95 1004.55 1136.47 1006.72 1045.93 1011.82C955.393 1016.91 1108.23 1014.3 1199.1 1021.86C1289.97 1029.41 1179.07 1025 1072.96 1029.53C966.843 1034.07 1124.02 1032.47 1202.84 1048.9C1265.89 1062.05 1095.71 1056.12 992.14 1056.12C954.925 1056.46 868.935 1064.12 786.796 1048.9C696.611 1032.19 842.069 1036.54 963.154 1031.82C1084.24 1027.1 878.348 1031.73 765.125 1020.11C651.902 1008.5 849.313 1019.96 950.479 1013.67C1051.65 1007.38 855.732 1012.05 786.796 999.867C717.861 987.687 833.521 1001.79 937.17 996.006C1040.82 990.222 875.509 992.783 822.688 984.884C769.866 976.984 863.875 983.561 931.365 977.384C998.856 971.207 879.641 975.937 823.056 969.014C766.47 962.092 884.173 968.763 931.658 964.738C979.144 960.713 893.023 963.591 856.956 959.231C820.889 954.87 921.145 960.976 938.06 957.572C954.976 954.168 907.507 957.45 868.935 953.575C830.363 949.701 881.457 951.394 927.638 949.843C973.82 948.292 907.691 949.515 893.413 946.73Z" fill="white"/>
<ellipse cx="60.3213" cy="968.771" rx="9.1629" ry="11.3741" fill="#0E5608"/>
<ellipse cx="76.0814" cy="968.771" rx="9.1629" ry="11.3741" fill="#0E5608"/>
<ellipse cx="98.8054" cy="996.069" rx="9.1629" ry="11.3741" fill="#0E5608"/>
<ellipse cx="80.4796" cy="950.573" rx="9.1629" ry="11.3741" fill="#0E5608"/>
<ellipse cx="69.4842" cy="950.573" rx="9.1629" ry="11.3741" fill="#0E5608"/>
<ellipse cx="66.9186" cy="950.573" rx="9.1629" ry="11.3741" fill="#0E5608"/>
<ellipse cx="66.9186" cy="957.397" rx="9.1629" ry="11.3741" fill="#0E5608"/>
<ellipse cx="96.2398" cy="1019.5" rx="9.1629" ry="11.3741" fill="#0E5608"/>
<ellipse cx="43.8281" cy="961.947" rx="9.1629" ry="11.3741" fill="#0E5608"/>
<ellipse cx="40.1629" cy="943.748" rx="9.1629" ry="11.3741" fill="#0E5608"/>
<ellipse cx="52.991" cy="932.374" rx="9.1629" ry="11.3741" fill="#0E5608"/>
<ellipse cx="69.4842" cy="936.924" rx="9.1629" ry="11.3741" fill="#0E5608"/>
<ellipse cx="80.4796" cy="957.397" rx="9.1629" ry="11.3741" fill="#0E5608"/>
<ellipse cx="102.837" cy="1007.44" rx="9.1629" ry="11.3741" fill="#0E5608"/>
<ellipse cx="89.6425" cy="1008.13" rx="9.1629" ry="11.3741" fill="#0E5608"/>
<ellipse cx="63.9864" cy="939.198" rx="9.1629" ry="3.6397" fill="#0E5608"/>
<ellipse cx="54.8235" cy="950.573" rx="9.1629" ry="11.3741" fill="#0E5608"/>
<path d="M47.8597 1072.05C35.7647 1070.68 48.5927 1062.04 54.457 979.69C55.3723 966.837 59.8081 965.382 60.6878 966.837C61.5674 968.293 61.4208 1013.05 60.6878 1027.92L80.1131 1021.09L87.8099 1015.63H96.2398C87.6878 1025.03 69.3375 1032.37 64.3529 1033.83C59.3683 1035.29 63.9864 1063.86 66.9185 1072.05C64.5973 1072.5 57.5357 1073.14 47.8597 1072.05Z" fill="#0E5608" stroke="black"/>
<ellipse cx="143.081" cy="996.171" rx="6.90045" ry="8.37398" fill="#0E5608"/>
<ellipse cx="154.95" cy="996.171" rx="6.90045" ry="8.37398" fill="#0E5608"/>
<ellipse cx="172.063" cy="1016.27" rx="6.90045" ry="8.37398" fill="#0E5608"/>
<ellipse cx="158.262" cy="982.772" rx="6.90045" ry="8.37398" fill="#0E5608"/>
<ellipse cx="149.982" cy="982.772" rx="6.90045" ry="8.37398" fill="#0E5608"/>
<ellipse cx="148.05" cy="982.772" rx="6.90045" ry="8.37398" fill="#0E5608"/>
<ellipse cx="148.05" cy="987.797" rx="6.90045" ry="8.37398" fill="#0E5608"/>
<ellipse cx="170.131" cy="1033.52" rx="6.90045" ry="8.37398" fill="#0E5608"/>
<ellipse cx="130.661" cy="991.146" rx="6.90045" ry="8.37398" fill="#0E5608"/>
<ellipse cx="127.9" cy="977.748" rx="6.90045" ry="8.37398" fill="#0E5608"/>
<ellipse cx="137.561" cy="969.374" rx="6.90045" ry="8.37398" fill="#0E5608"/>
<ellipse cx="149.982" cy="972.724" rx="6.90045" ry="8.37398" fill="#0E5608"/>
<ellipse cx="158.262" cy="987.797" rx="6.90045" ry="8.37398" fill="#0E5608"/>
<ellipse cx="175.1" cy="1024.64" rx="6.90045" ry="8.37398" fill="#0E5608"/>
<ellipse cx="165.163" cy="1025.14" rx="6.90045" ry="8.37398" fill="#0E5608"/>
<ellipse cx="145.842" cy="974.398" rx="6.90045" ry="2.67967" fill="#0E5608"/>
<ellipse cx="138.941" cy="982.772" rx="6.90045" ry="8.37398" fill="#0E5608"/>
<path d="M133.697 1072.21C124.588 1071.2 134.249 1064.84 138.665 1004.21C139.354 994.747 142.695 993.675 143.357 994.747C144.02 995.819 143.909 1028.77 143.357 1039.72L157.986 1034.69L163.783 1030.67H170.131C163.691 1037.59 149.871 1043 146.118 1044.07C142.364 1045.14 145.842 1066.18 148.05 1072.21C146.302 1072.54 140.984 1073.01 133.697 1072.21Z" fill="#0E5608" stroke="black"/>
<path d="M1866.88 1067.52C1862.43 1067.03 1866.01 1062.66 1869.56 991.585L1868.42 995.363L1867.34 986.66L1864.11 993.398L1862.26 985.537L1859.94 991.994L1859.17 985.537L1856.25 993.398C1856.25 993.398 1855.83 991.424 1855.49 989.751C1855.39 992.29 1852.82 993.134 1850.54 993.398L1855.32 979.641C1859.78 960.904 1863.18 951.094 1871.04 935C1874.22 950.039 1875.92 959.156 1880.29 964.199C1884.65 969.243 1889.54 993.398 1889.54 993.398L1886.15 990.591L1883.68 988.344C1883.52 991.025 1883.17 992.224 1881.68 993.398L1879.83 986.66C1878.6 993.013 1878.41 993.664 1877.98 995.363C1876.35 993.954 1875.53 992.602 1874.59 986.66L1872.27 995.363L1874.59 1067.52C1873.71 1067.71 1870.95 1067.97 1866.88 1067.52Z" fill="#0E5608"/>
<path d="M1849.08 1027.93C1849.17 1018.51 1854.91 1001.42 1870.5 974.026C1875.71 1000.41 1880.46 1012.64 1891 1031.58H1888.84L1887.61 1027.93L1886.07 1031.58L1884.22 1027.93C1884.6 1030.74 1884.44 1031.92 1881.75 1031.58L1880.52 1027.93L1878.67 1031.58L1876.82 1027.93C1875.71 1033.55 1874.47 1034.76 1871.27 1033.83L1870.5 1027.93L1868.81 1033.83L1867.27 1027.93L1864.49 1033.83C1862.86 1034.94 1862.2 1025.43 1862.33 1027.93C1862.47 1030.44 1860.79 1031.58 1860.79 1031.58L1859.25 1027.93C1859.06 1030.92 1858.6 1032.19 1857.25 1033.83L1856.01 1027.93C1853.63 1029.2 1852.96 1030.3 1853.46 1032.09C1853.89 1032.99 1854.16 1033.83 1854.16 1033.83C1853.84 1033.18 1853.6 1032.6 1853.46 1032.09C1853.01 1031.14 1852.4 1030.13 1851.78 1029.9C1849.91 1029.21 1848 1035.51 1848 1035.51L1849.08 1027.93Z" fill="#0E5608"/>
<path d="M1866.57 994.521H1874.28V1008.56H1866.57V994.521Z" fill="#0E5608"/>
<path d="M1713.81 1060.57C1710.08 1060.17 1713.08 1056.66 1716.05 999.504L1715.1 1002.54L1714.19 995.543L1711.48 1000.96L1709.94 994.64L1708 999.833L1707.35 994.64L1704.9 1000.96C1704.9 1000.96 1704.55 999.375 1704.27 998.029C1704.18 1000.07 1702.03 1000.75 1700.13 1000.96L1704.13 989.899C1707.87 974.831 1710.71 966.942 1717.29 954C1719.95 966.093 1721.38 973.425 1725.03 977.481C1728.69 981.537 1732.77 1000.96 1732.77 1000.96L1729.94 998.704L1727.87 996.898C1727.74 999.053 1727.44 1000.02 1726.19 1000.96L1724.65 995.543C1723.62 1000.65 1723.46 1001.18 1723.1 1002.54C1721.74 1001.41 1721.05 1000.32 1720.26 995.543L1718.32 1002.54L1720.26 1060.57C1719.53 1060.72 1717.21 1060.93 1713.81 1060.57Z" fill="#0E5608"/>
<path d="M1698.9 1028.73C1698.98 1021.16 1703.79 1007.41 1716.84 985.383C1721.2 1006.6 1725.18 1016.43 1734 1031.67H1732.19L1731.16 1028.73L1729.87 1031.67L1728.32 1028.73C1728.64 1030.99 1728.51 1031.94 1726.26 1031.67L1725.23 1028.73L1723.68 1031.67L1722.13 1028.73C1721.2 1033.25 1720.16 1034.22 1717.48 1033.47L1716.84 1028.73L1715.42 1033.47L1714.13 1028.73L1711.81 1033.47C1710.44 1034.37 1709.89 1026.72 1710 1028.73C1710.11 1030.75 1708.71 1031.67 1708.71 1031.67L1707.42 1028.73C1707.26 1031.13 1706.87 1032.15 1705.74 1033.47L1704.71 1028.73C1702.71 1029.76 1702.15 1030.64 1702.57 1032.07C1702.93 1032.8 1703.16 1033.47 1703.16 1033.47C1702.89 1032.95 1702.69 1032.49 1702.57 1032.07C1702.2 1031.32 1701.69 1030.5 1701.16 1030.31C1699.6 1029.76 1698 1034.83 1698 1034.83L1698.9 1028.73Z" fill="#0E5608"/>
<path d="M1713.55 1001.86H1720V1013.15H1713.55V1001.86Z" fill="#0E5608"/>
<path d="M1787.66 1059.64C1785.38 1059.39 1787.21 1057.16 1789.03 1020.88L1788.45 1022.81L1787.9 1018.37L1786.24 1021.81L1785.29 1017.8L1784.11 1021.09L1783.72 1017.8L1782.22 1021.81C1782.22 1021.81 1782 1020.8 1781.83 1019.95C1781.78 1021.24 1780.46 1021.67 1779.3 1021.81L1781.75 1014.79C1784.03 1005.22 1785.77 1000.21 1789.79 992C1791.42 999.676 1792.29 1004.33 1794.52 1006.9C1796.75 1009.48 1799.25 1021.81 1799.25 1021.81L1797.52 1020.37L1796.25 1019.23C1796.17 1020.6 1795.99 1021.21 1795.23 1021.81L1794.28 1018.37C1793.66 1021.61 1793.56 1021.94 1793.34 1022.81C1792.51 1022.09 1792.08 1021.4 1791.6 1018.37L1790.42 1022.81L1791.6 1059.64C1791.16 1059.74 1789.74 1059.87 1787.66 1059.64Z" fill="#0E5608"/>
<path d="M1778.55 1039.43C1778.6 1034.63 1781.54 1025.9 1789.51 1011.92C1792.18 1025.39 1794.61 1031.63 1800 1041.3H1798.9L1798.27 1039.43L1797.48 1041.3L1796.53 1039.43C1796.73 1040.87 1796.64 1041.47 1795.27 1041.3L1794.64 1039.43L1793.69 1041.3L1792.75 1039.43C1792.18 1042.3 1791.54 1042.92 1789.91 1042.44L1789.51 1039.43L1788.65 1042.44L1787.86 1039.43L1786.44 1042.44C1785.61 1043.01 1785.26 1038.16 1785.33 1039.43C1785.4 1040.71 1784.54 1041.3 1784.54 1041.3L1783.76 1039.43C1783.66 1040.96 1783.42 1041.61 1782.73 1042.44L1782.1 1039.43C1780.88 1040.08 1780.54 1040.64 1780.79 1041.55C1781.01 1042.02 1781.15 1042.44 1781.15 1042.44C1780.99 1042.11 1780.87 1041.82 1780.79 1041.55C1780.56 1041.07 1780.25 1040.56 1779.93 1040.44C1778.98 1040.09 1778 1043.3 1778 1043.3L1778.55 1039.43Z" fill="#0E5608"/>
<path d="M1787.5 1022.38H1791.44V1029.55H1787.5V1022.38Z" fill="#0E5608"/>
</g>
<rect y="1059" width="1920" height="21" fill="#03560C"/>
<defs>
<filter id="filter0_d" x="740" y="-58" width="478" height="471" filterUnits="userSpaceOnUse" color-interpolation-filters="sRGB">
<feFlood flood-opacity="0" result="BackgroundImageFix"/>
<feColorMatrix in="SourceAlpha" type="matrix" values="0 0 0 0 0 0 0 0 0 0 0 0 0 0 0 0 0 0 127 0"/>
<feOffset/>
<feGaussianBlur stdDeviation="87.5"/>
<feColorMatrix type="matrix" values="0 0 0 0 1 0 0 0 0 1 0 0 0 0 1 0 0 0 1 0"/>
<feBlend mode="normal" in2="BackgroundImageFix" result="effect1_dropShadow"/>
<feBlend mode="normal" in="SourceGraphic" in2="effect1_dropShadow" result="shape"/>
</filter>
<linearGradient id="paint0_linear" x1="960" y1="0" x2="960" y2="1080" gradientUnits="userSpaceOnUse">
<stop stop-color="#231A89"/>
<stop offset="1" stop-color="#8B81FF"/>
</linearGradient>
<clipPath id="clip0">
<rect width="1920" height="1080" fill="white"/>
</clipPath>
</defs>
</svg>
