<svg width="800" height="600" viewBox="0 0 800 600" fill="none" xmlns="http://www.w3.org/2000/svg">
<g clip-path="url(#clip0)">
<rect width="800" height="600" fill="url(#paint0_linear)"/>
<path d="M191.5 25L191.837 26.0365H192.927L192.045 26.6771L192.382 27.7135L191.5 27.0729L190.618 27.7135L190.955 26.6771L190.073 26.0365H191.163L191.5 25Z" fill="#FFFCFC"/>
<path d="M403.5 268L403.837 269.036H404.927L404.045 269.677L404.382 270.714L403.5 270.073L402.618 270.714L402.955 269.677L402.073 269.036H403.163L403.5 268Z" fill="#FFFCFC"/>
<path d="M466.5 280L466.837 281.036H467.927L467.045 281.677L467.382 282.714L466.5 282.073L465.618 282.714L465.955 281.677L465.073 281.036H466.163L466.5 280Z" fill="#FFFCFC"/>
<path d="M543.5 269L543.837 270.036H544.927L544.045 270.677L544.382 271.714L543.5 271.073L542.618 271.714L542.955 270.677L542.073 270.036H543.163L543.5 269Z" fill="#FFFCFC"/>
<path d="M279.5 267L279.837 268.036H280.927L280.045 268.677L280.382 269.714L279.5 269.073L278.618 269.714L278.955 268.677L278.073 268.036H279.163L279.5 267Z" fill="#FFFCFC"/>
<path d="M630.5 277L630.837 278.036H631.927L631.045 278.677L631.382 279.714L630.5 279.073L629.618 279.714L629.955 278.677L629.073 278.036H630.163L630.5 277Z" fill="#FFFCFC"/>
<path d="M771.5 14L771.837 15.0365H772.927L772.045 15.6771L772.382 16.7135L771.5 16.0729L770.618 16.7135L770.955 15.6771L770.073 15.0365H771.163L771.5 14Z" fill="#FFFCFC"/>
<path d="M253.5 321L253.837 322.036H254.927L254.045 322.677L254.382 323.714L253.5 323.073L252.618 323.714L252.955 322.677L252.073 322.036H253.163L253.5 321Z" fill="#FFFCFC"/>
<path d="M314.5 278L314.837 279.036H315.927L315.045 279.677L315.382 280.714L314.5 280.073L313.618 280.714L313.955 279.677L313.073 279.036H314.163L314.5 278Z" fill="#FFFCFC"/>
<path d="M286.5 380L286.837 381.036H287.927L287.045 381.677L287.382 382.714L286.5 382.073L285.618 382.714L285.955 381.677L285.073 381.036H286.163L286.5 380Z" fill="#FFFCFC"/>
<path d="M321.5 314L321.837 315.036H322.927L322.045 315.677L322.382 316.714L321.5 316.073L320.618 316.714L320.955 315.677L320.073 315.036H321.163L321.5 314Z" fill="#FFFCFC"/>
<path d="M787.5 125L787.837 126.036H788.927L788.045 126.677L788.382 127.714L787.5 127.073L786.618 127.714L786.955 126.677L786.073 126.036H787.163L787.5 125Z" fill="#FFFCFC"/>
<path d="M387.5 341L387.837 342.036H388.927L388.045 342.677L388.382 343.714L387.5 343.073L386.618 343.714L386.955 342.677L386.073 342.036H387.163L387.5 341Z" fill="#FFFCFC"/>
<path d="M12.5 248L12.8368 249.036H13.9266L13.0449 249.677L13.3817 250.714L12.5 250.073L11.6183 250.714L11.9551 249.677L11.0734 249.036H12.1632L12.5 248Z" fill="#FFFCFC"/>
<path d="M134.5 116L134.837 117.036H135.927L135.045 117.677L135.382 118.714L134.5 118.073L133.618 118.714L133.955 117.677L133.073 117.036H134.163L134.5 116Z" fill="#FFFCFC"/>
<path d="M756.5 143L756.837 144.036H757.927L757.045 144.677L757.382 145.714L756.5 145.073L755.618 145.714L755.955 144.677L755.073 144.036H756.163L756.5 143Z" fill="#FFFCFC"/>
<path d="M511.5 317L511.837 318.036H512.927L512.045 318.677L512.382 319.714L511.5 319.073L510.618 319.714L510.955 318.677L510.073 318.036H511.163L511.5 317Z" fill="#FFFCFC"/>
<path d="M591.5 219L591.837 220.036H592.927L592.045 220.677L592.382 221.714L591.5 221.073L590.618 221.714L590.955 220.677L590.073 220.036H591.163L591.5 219Z" fill="#FFFCFC"/>
<path d="M214.5 129L214.837 130.036H215.927L215.045 130.677L215.382 131.714L214.5 131.073L213.618 131.714L213.955 130.677L213.073 130.036H214.163L214.5 129Z" fill="#FFFCFC"/>
<path d="M710.5 100L710.837 101.036H711.927L711.045 101.677L711.382 102.714L710.5 102.073L709.618 102.714L709.955 101.677L709.073 101.036H710.163L710.5 100Z" fill="#FFFCFC"/>
<path d="M182.5 300L182.837 301.036H183.927L183.045 301.677L183.382 302.714L182.5 302.073L181.618 302.714L181.955 301.677L181.073 301.036H182.163L182.5 300Z" fill="#FFFCFC"/>
<path d="M753.5 89L753.837 90.0365H754.927L754.045 90.6771L754.382 91.7135L753.5 91.0729L752.618 91.7135L752.955 90.6771L752.073 90.0365H753.163L753.5 89Z" fill="#FFFCFC"/>
<path d="M596.5 42L596.837 43.0365H597.927L597.045 43.6771L597.382 44.7135L596.5 44.0729L595.618 44.7135L595.955 43.6771L595.073 43.0365H596.163L596.5 42Z" fill="#FFFCFC"/>
<path d="M594.5 121L594.837 122.036H595.927L595.045 122.677L595.382 123.714L594.5 123.073L593.618 123.714L593.955 122.677L593.073 122.036H594.163L594.5 121Z" fill="#FFFCFC"/>
<path d="M638.5 184L638.837 185.036H639.927L639.045 185.677L639.382 186.714L638.5 186.073L637.618 186.714L637.955 185.677L637.073 185.036H638.163L638.5 184Z" fill="#FFFCFC"/>
<path d="M650.5 139L650.837 140.036H651.927L651.045 140.677L651.382 141.714L650.5 141.073L649.618 141.714L649.955 140.677L649.073 140.036H650.163L650.5 139Z" fill="#FFFCFC"/>
<path d="M724.5 130L724.837 131.036H725.927L725.045 131.677L725.382 132.714L724.5 132.073L723.618 132.714L723.955 131.677L723.073 131.036H724.163L724.5 130Z" fill="#FFFCFC"/>
<path d="M727.5 53L727.837 54.0365H728.927L728.045 54.6771L728.382 55.7135L727.5 55.0729L726.618 55.7135L726.955 54.6771L726.073 54.0365H727.163L727.5 53Z" fill="#FFFCFC"/>
<path d="M664.5 25L664.837 26.0365H665.927L665.045 26.6771L665.382 27.7135L664.5 27.0729L663.618 27.7135L663.955 26.6771L663.073 26.0365H664.163L664.5 25Z" fill="#FFFCFC"/>
<path d="M629.5 42L629.837 43.0365H630.927L630.045 43.6771L630.382 44.7135L629.5 44.0729L628.618 44.7135L628.955 43.6771L628.073 43.0365H629.163L629.5 42Z" fill="#FFFCFC"/>
<path d="M742.5 39L742.837 40.0365H743.927L743.045 40.6771L743.382 41.7135L742.5 41.0729L741.618 41.7135L741.955 40.6771L741.073 40.0365H742.163L742.5 39Z" fill="#FFFCFC"/>
<path d="M744.5 83L744.837 84.0365H745.927L745.045 84.6771L745.382 85.7135L744.5 85.0729L743.618 85.7135L743.955 84.6771L743.073 84.0365H744.163L744.5 83Z" fill="#FFFCFC"/>
<path d="M90.5 280L90.8368 281.036H91.9266L91.0449 281.677L91.3817 282.714L90.5 282.073L89.6183 282.714L89.9551 281.677L89.0734 281.036H90.1632L90.5 280Z" fill="#FFFCFC"/>
<path d="M773.5 261L773.837 262.036H774.927L774.045 262.677L774.382 263.714L773.5 263.073L772.618 263.714L772.955 262.677L772.073 262.036H773.163L773.5 261Z" fill="#FFFCFC"/>
<path d="M641.5 242L641.837 243.036H642.927L642.045 243.677L642.382 244.714L641.5 244.073L640.618 244.714L640.955 243.677L640.073 243.036H641.163L641.5 242Z" fill="#FFFCFC"/>
<path d="M230.5 38L230.837 39.0365H231.927L231.045 39.6771L231.382 40.7135L230.5 40.0729L229.618 40.7135L229.955 39.6771L229.073 39.0365H230.163L230.5 38Z" fill="#FFFCFC"/>
<path d="M308.5 144L308.837 145.036H309.927L309.045 145.677L309.382 146.714L308.5 146.073L307.618 146.714L307.955 145.677L307.073 145.036H308.163L308.5 144Z" fill="#FFFCFC"/>
<path d="M510.5 222L510.837 223.036H511.927L511.045 223.677L511.382 224.714L510.5 224.073L509.618 224.714L509.955 223.677L509.073 223.036H510.163L510.5 222Z" fill="#FFFCFC"/>
<path d="M459.5 201L459.837 202.036H460.927L460.045 202.677L460.382 203.714L459.5 203.073L458.618 203.714L458.955 202.677L458.073 202.036H459.163L459.5 201Z" fill="#FFFCFC"/>
<path d="M562.5 208L562.837 209.036H563.927L563.045 209.677L563.382 210.714L562.5 210.073L561.618 210.714L561.955 209.677L561.073 209.036H562.163L562.5 208Z" fill="#FFFCFC"/>
<path d="M346.5 187L346.837 188.036H347.927L347.045 188.677L347.382 189.714L346.5 189.073L345.618 189.714L345.955 188.677L345.073 188.036H346.163L346.5 187Z" fill="#FFFCFC"/>
<path d="M282.5 209L282.837 210.036H283.927L283.045 210.677L283.382 211.714L282.5 211.073L281.618 211.714L281.955 210.677L281.073 210.036H282.163L282.5 209Z" fill="#FFFCFC"/>
<path d="M335.5 210L335.837 211.036H336.927L336.045 211.677L336.382 212.714L335.5 212.073L334.618 212.714L334.955 211.677L334.073 211.036H335.163L335.5 210Z" fill="#FFFCFC"/>
<path d="M586.5 179L586.837 180.036H587.927L587.045 180.677L587.382 181.714L586.5 181.073L585.618 181.714L585.955 180.677L585.073 180.036H586.163L586.5 179Z" fill="#FFFCFC"/>
<path d="M22.5 53L22.8368 54.0365H23.9266L23.0449 54.6771L23.3817 55.7135L22.5 55.0729L21.6183 55.7135L21.9551 54.6771L21.0734 54.0365H22.1632L22.5 53Z" fill="#FFFCFC"/>
<path d="M444.5 49L444.837 50.0365H445.927L445.045 50.6771L445.382 51.7135L444.5 51.0729L443.618 51.7135L443.955 50.6771L443.073 50.0365H444.163L444.5 49Z" fill="#FFFCFC"/>
<path d="M477.5 29L477.837 30.0365H478.927L478.045 30.6771L478.382 31.7135L477.5 31.0729L476.618 31.7135L476.955 30.6771L476.073 30.0365H477.163L477.5 29Z" fill="#FFFCFC"/>
<path d="M102.5 134L102.837 135.036H103.927L103.045 135.677L103.382 136.714L102.5 136.073L101.618 136.714L101.955 135.677L101.073 135.036H102.163L102.5 134Z" fill="#FFFCFC"/>
<path d="M185.5 53L185.837 54.0365H186.927L186.045 54.6771L186.382 55.7135L185.5 55.0729L184.618 55.7135L184.955 54.6771L184.073 54.0365H185.163L185.5 53Z" fill="#FFFCFC"/>
<path d="M486.5 55L486.837 56.0365H487.927L487.045 56.6771L487.382 57.7135L486.5 57.0729L485.618 57.7135L485.955 56.6771L485.073 56.0365H486.163L486.5 55Z" fill="#FFFCFC"/>
<path d="M544.5 25L544.837 26.0365H545.927L545.045 26.6771L545.382 27.7135L544.5 27.0729L543.618 27.7135L543.955 26.6771L543.073 26.0365H544.163L544.5 25Z" fill="#FFFCFC"/>
<path d="M474.5 151L474.837 152.036H475.927L475.045 152.677L475.382 153.714L474.5 153.073L473.618 153.714L473.955 152.677L473.073 152.036H474.163L474.5 151Z" fill="#FFFCFC"/>
<path d="M501.5 188L501.837 189.036H502.927L502.045 189.677L502.382 190.714L501.5 190.073L500.618 190.714L500.955 189.677L500.073 189.036H501.163L501.5 188Z" fill="#FFFCFC"/>
<path d="M531.5 207L531.837 208.036H532.927L532.045 208.677L532.382 209.714L531.5 209.073L530.618 209.714L530.955 208.677L530.073 208.036H531.163L531.5 207Z" fill="#FFFCFC"/>
<path d="M489.5 85L489.837 86.0365H490.927L490.045 86.6771L490.382 87.7135L489.5 87.0729L488.618 87.7135L488.955 86.6771L488.073 86.0365H489.163L489.5 85Z" fill="#FFFCFC"/>
<path d="M216.5 161L216.837 162.036H217.927L217.045 162.677L217.382 163.714L216.5 163.073L215.618 163.714L215.955 162.677L215.073 162.036H216.163L216.5 161Z" fill="#FFFCFC"/>
<path d="M522.5 30L522.837 31.0365H523.927L523.045 31.6771L523.382 32.7135L522.5 32.0729L521.618 32.7135L521.955 31.6771L521.073 31.0365H522.163L522.5 30Z" fill="#FFFCFC"/>
<path d="M218.5 92L218.837 93.0365H219.927L219.045 93.6771L219.382 94.7135L218.5 94.0729L217.618 94.7135L217.955 93.6771L217.073 93.0365H218.163L218.5 92Z" fill="#FFFCFC"/>
<path d="M462.5 79L462.837 80.0365H463.927L463.045 80.6771L463.382 81.7135L462.5 81.0729L461.618 81.7135L461.955 80.6771L461.073 80.0365H462.163L462.5 79Z" fill="#FFFCFC"/>
<path d="M534.5 72L534.837 73.0365H535.927L535.045 73.6771L535.382 74.7135L534.5 74.0729L533.618 74.7135L533.955 73.6771L533.073 73.0365H534.163L534.5 72Z" fill="#FFFCFC"/>
<path d="M545.5 103L545.837 104.036H546.927L546.045 104.677L546.382 105.714L545.5 105.073L544.618 105.714L544.955 104.677L544.073 104.036H545.163L545.5 103Z" fill="#FFFCFC"/>
<path d="M508.5 127L508.837 128.036H509.927L509.045 128.677L509.382 129.714L508.5 129.073L507.618 129.714L507.955 128.677L507.073 128.036H508.163L508.5 127Z" fill="#FFFCFC"/>
<path d="M516.5 51L516.837 52.0365H517.927L517.045 52.6771L517.382 53.7135L516.5 53.0729L515.618 53.7135L515.955 52.6771L515.073 52.0365H516.163L516.5 51Z" fill="#FFFCFC"/>
<path d="M285.5 71L285.837 72.0365H286.927L286.045 72.6771L286.382 73.7135L285.5 73.0729L284.618 73.7135L284.955 72.6771L284.073 72.0365H285.163L285.5 71Z" fill="#FFFCFC"/>
<path d="M106.5 14L106.837 15.0365H107.927L107.045 15.6771L107.382 16.7135L106.5 16.0729L105.618 16.7135L105.955 15.6771L105.073 15.0365H106.163L106.5 14Z" fill="#FFFCFC"/>
<path d="M231.5 64L231.837 65.0365H232.927L232.045 65.6771L232.382 66.7135L231.5 66.0729L230.618 66.7135L230.955 65.6771L230.073 65.0365H231.163L231.5 64Z" fill="#FFFCFC"/>
<path d="M147.5 110L147.837 111.036H148.927L148.045 111.677L148.382 112.714L147.5 112.073L146.618 112.714L146.955 111.677L146.073 111.036H147.163L147.5 110Z" fill="#FFFCFC"/>
<path d="M349.5 264L349.837 265.036H350.927L350.045 265.677L350.382 266.714L349.5 266.073L348.618 266.714L348.955 265.677L348.073 265.036H349.163L349.5 264Z" fill="#FFFCFC"/>
<path d="M313.5 178L313.837 179.036H314.927L314.045 179.677L314.382 180.714L313.5 180.073L312.618 180.714L312.955 179.677L312.073 179.036H313.163L313.5 178Z" fill="#FFFCFC"/>
<path d="M23.5 129L23.8368 130.036H24.9266L24.0449 130.677L24.3817 131.714L23.5 131.073L22.6183 131.714L22.9551 130.677L22.0734 130.036H23.1632L23.5 129Z" fill="#FFFCFC"/>
<path d="M216.5 233L216.837 234.036H217.927L217.045 234.677L217.382 235.714L216.5 235.073L215.618 235.714L215.955 234.677L215.073 234.036H216.163L216.5 233Z" fill="#FFFCFC"/>
<path d="M40.5 11L40.8368 12.0365H41.9266L41.0449 12.6771L41.3817 13.7135L40.5 13.0729L39.6183 13.7135L39.9551 12.6771L39.0734 12.0365H40.1632L40.5 11Z" fill="#FFFCFC"/>
<path d="M142.5 27L142.837 28.0365H143.927L143.045 28.6771L143.382 29.7135L142.5 29.0729L141.618 29.7135L141.955 28.6771L141.073 28.0365H142.163L142.5 27Z" fill="#FFFCFC"/>
<path d="M158.5 69L158.837 70.0365H159.927L159.045 70.6771L159.382 71.7135L158.5 71.0729L157.618 71.7135L157.955 70.6771L157.073 70.0365H158.163L158.5 69Z" fill="#FFFCFC"/>
<path d="M47.5 126L47.8368 127.036H48.9266L48.0449 127.677L48.3817 128.714L47.5 128.073L46.6183 128.714L46.9551 127.677L46.0734 127.036H47.1632L47.5 126Z" fill="#FFFCFC"/>
<path d="M63.5 27L63.8368 28.0365H64.9266L64.0449 28.6771L64.3817 29.7135L63.5 29.0729L62.6183 29.7135L62.9551 28.6771L62.0734 28.0365H63.1632L63.5 27Z" fill="#FFFCFC"/>
<path d="M162.5 134L162.837 135.036H163.927L163.045 135.677L163.382 136.714L162.5 136.073L161.618 136.714L161.955 135.677L161.073 135.036H162.163L162.5 134Z" fill="#FFFCFC"/>
<path d="M243.5 195L243.837 196.036H244.927L244.045 196.677L244.382 197.714L243.5 197.073L242.618 197.714L242.955 196.677L242.073 196.036H243.163L243.5 195Z" fill="#FFFCFC"/>
<path d="M685.5 104L685.837 105.036H686.927L686.045 105.677L686.382 106.714L685.5 106.073L684.618 106.714L684.955 105.677L684.073 105.036H685.163L685.5 104Z" fill="#FFFCFC"/>
<path d="M72.5 89L72.8368 90.0365H73.9266L73.0449 90.6771L73.3817 91.7135L72.5 91.0729L71.6183 91.7135L71.9551 90.6771L71.0734 90.0365H72.1632L72.5 89Z" fill="#FFFCFC"/>
<path d="M370.5 58L370.837 59.0365H371.927L371.045 59.6771L371.382 60.7135L370.5 60.0729L369.618 60.7135L369.955 59.6771L369.073 59.0365H370.163L370.5 58Z" fill="#FFFCFC"/>
<path d="M400.5 47L400.837 48.0365H401.927L401.045 48.6771L401.382 49.7135L400.5 49.0729L399.618 49.7135L399.955 48.6771L399.073 48.0365H400.163L400.5 47Z" fill="#FFFCFC"/>
<path d="M297.5 40L297.837 41.0365H298.927L298.045 41.6771L298.382 42.7135L297.5 42.0729L296.618 42.7135L296.955 41.6771L296.073 41.0365H297.163L297.5 40Z" fill="#FFFCFC"/>
<path d="M188.5 129L188.837 130.036H189.927L189.045 130.677L189.382 131.714L188.5 131.073L187.618 131.714L187.955 130.677L187.073 130.036H188.163L188.5 129Z" fill="#FFFCFC"/>
<path d="M335.5 38L335.837 39.0365H336.927L336.045 39.6771L336.382 40.7135L335.5 40.0729L334.618 40.7135L334.955 39.6771L334.073 39.0365H335.163L335.5 38Z" fill="#FFFDFD"/>
<path d="M268.5 81L268.837 82.0365H269.927L269.045 82.6771L269.382 83.7135L268.5 83.0729L267.618 83.7135L267.955 82.6771L267.073 82.0365H268.163L268.5 81Z" fill="#FFFCFC"/>
<path d="M213.5 110L213.837 111.036H214.927L214.045 111.677L214.382 112.714L213.5 112.073L212.618 112.714L212.955 111.677L212.073 111.036H213.163L213.5 110Z" fill="#FFFCFC"/>
<path d="M295.5 344L295.837 345.036H296.927L296.045 345.677L296.382 346.714L295.5 346.073L294.618 346.714L294.955 345.677L294.073 345.036H295.163L295.5 344Z" fill="#FFFCFC"/>
<path d="M256.5 113L256.837 114.036H257.927L257.045 114.677L257.382 115.714L256.5 115.073L255.618 115.714L255.955 114.677L255.073 114.036H256.163L256.5 113Z" fill="#FFFCFC"/>
<path d="M35.5 157L35.8368 158.036H36.9266L36.0449 158.677L36.3817 159.714L35.5 159.073L34.6183 159.714L34.9551 158.677L34.0734 158.036H35.1632L35.5 157Z" fill="#FFFCFC"/>
<path d="M246.5 245L246.837 246.036H247.927L247.045 246.677L247.382 247.714L246.5 247.073L245.618 247.714L245.955 246.677L245.073 246.036H246.163L246.5 245Z" fill="#FFFCFC"/>
<path d="M266.5 28L266.837 29.0365H267.927L267.045 29.6771L267.382 30.7135L266.5 30.0729L265.618 30.7135L265.955 29.6771L265.073 29.0365H266.163L266.5 28Z" fill="#FFFCFC"/>
<path d="M400.5 205L400.837 203.964H401.927L401.045 203.323L401.382 202.286L400.5 202.927L399.618 202.286L399.955 203.323L399.073 203.964H400.163L400.5 205Z" fill="#FFFCFC"/>
<path d="M329.5 80L329.837 81.0365H330.927L330.045 81.6771L330.382 82.7135L329.5 82.0729L328.618 82.7135L328.955 81.6771L328.073 81.0365H329.163L329.5 80Z" fill="#FFFDFD"/>
<path d="M305.5 107L305.837 108.036H306.927L306.045 108.677L306.382 109.714L305.5 109.073L304.618 109.714L304.955 108.677L304.073 108.036H305.163L305.5 107Z" fill="#FFFDFD"/>
<path d="M707.5 120L707.837 121.036H708.927L708.045 121.677L708.382 122.714L707.5 122.073L706.618 122.714L706.955 121.677L706.073 121.036H707.163L707.5 120Z" fill="#FFFDFD"/>
<path d="M597.5 171L597.837 172.036H598.927L598.045 172.677L598.382 173.714L597.5 173.073L596.618 173.714L596.955 172.677L596.073 172.036H597.163L597.5 171Z" fill="#FFFDFD"/>
<path d="M559.5 67L559.837 68.0365H560.927L560.045 68.6771L560.382 69.7135L559.5 69.0729L558.618 69.7135L558.955 68.6771L558.073 68.0365H559.163L559.5 67Z" fill="#FFFDFD"/>
<path d="M253.5 123L253.837 124.036H254.927L254.045 124.677L254.382 125.714L253.5 125.073L252.618 125.714L252.955 124.677L252.073 124.036H253.163L253.5 123Z" fill="#FFFBFB"/>
<path d="M653.5 97L653.837 98.0365H654.927L654.045 98.6771L654.382 99.7135L653.5 99.0729L652.618 99.7135L652.955 98.6771L652.073 98.0365H653.163L653.5 97Z" fill="#FFF9F9"/>
<g filter="url(#filter0_d)">
<ellipse cx="400.5" cy="124" rx="45.5" ry="45" fill="#F0EFFF"/>
</g>
<circle opacity="0.05" cx="413" cy="98" r="8" fill="#4B3BA8"/>
<circle opacity="0.05" cx="427" cy="135" r="11" fill="#224499"/>
<circle opacity="0.05" cx="383.5" cy="154.5" r="5.5" fill="#2B38AB"/>
<g opacity="0.2">
<path d="M92 48.0631C92 55.2776 84.8661 61.1261 76.0659 61.1261C67.2658 61.1261 60.1319 55.2776 60.1319 48.0631C60.1319 40.8485 67.2658 35 76.0659 35C84.8661 35 92 40.8485 92 48.0631Z" fill="#A2AAF5"/>
<path d="M92 48.0631C92 55.2776 84.8661 61.1261 76.0659 61.1261C67.2658 61.1261 60.1319 55.2776 60.1319 48.0631C60.1319 40.8485 67.2658 35 76.0659 35C84.8661 35 92 40.8485 92 48.0631Z" fill="#A2AAF5"/>
<path d="M92 48.0631C92 55.2776 84.8661 61.1261 76.0659 61.1261C67.2658 61.1261 60.1319 55.2776 60.1319 48.0631C60.1319 40.8485 67.2658 35 76.0659 35C84.8661 35 92 40.8485 92 48.0631Z" fill="#A2AAF5"/>
<path d="M124.418 71.9369C124.418 79.1515 117.284 85 108.484 85C99.6834 85 92.5495 79.1515 92.5495 71.9369C92.5495 64.7224 99.6834 58.8739 108.484 58.8739C117.284 58.8739 124.418 64.7224 124.418 71.9369Z" fill="#A2AAF5"/>
<path d="M96.3956 67.8829C96.3956 75.0974 89.2617 80.9459 80.4615 80.9459C71.6614 80.9459 64.5275 75.0974 64.5275 67.8829C64.5275 60.6684 71.6614 54.8198 80.4615 54.8198C89.2617 54.8198 96.3956 60.6684 96.3956 67.8829Z" fill="#A2AAF5"/>
<path d="M142 58.8739C142 66.0884 134.866 71.9369 126.066 71.9369C117.266 71.9369 110.132 66.0884 110.132 58.8739C110.132 51.6593 117.266 45.8108 126.066 45.8108C134.866 45.8108 142 51.6593 142 58.8739Z" fill="#A2AAF5"/>
<path d="M120.022 53.9189C120.022 61.1334 112.888 66.982 104.088 66.982C95.2878 66.982 88.1538 61.1334 88.1538 53.9189C88.1538 46.7044 95.2878 40.8559 104.088 40.8559C112.888 40.8559 120.022 46.7044 120.022 53.9189Z" fill="#A2AAF5"/>
<path d="M73.8681 61.5766C73.8681 68.7911 66.7342 74.6396 57.9341 74.6396C49.1339 74.6396 42 68.7911 42 61.5766C42 54.362 49.1339 48.5135 57.9341 48.5135C66.7342 48.5135 73.8681 54.362 73.8681 61.5766Z" fill="#A2AAF5"/>
</g>
<g opacity="0.2">
<path d="M541 152.063C541 159.278 533.866 165.126 525.066 165.126C516.266 165.126 509.132 159.278 509.132 152.063C509.132 144.849 516.266 139 525.066 139C533.866 139 541 144.849 541 152.063Z" fill="#A2AAF5"/>
<path d="M541 152.063C541 159.278 533.866 165.126 525.066 165.126C516.266 165.126 509.132 159.278 509.132 152.063C509.132 144.849 516.266 139 525.066 139C533.866 139 541 144.849 541 152.063Z" fill="#A2AAF5"/>
<path d="M541 152.063C541 159.278 533.866 165.126 525.066 165.126C516.266 165.126 509.132 159.278 509.132 152.063C509.132 144.849 516.266 139 525.066 139C533.866 139 541 144.849 541 152.063Z" fill="#A2AAF5"/>
<path d="M573.418 175.937C573.418 183.151 566.284 189 557.484 189C548.683 189 541.549 183.151 541.549 175.937C541.549 168.722 548.683 162.874 557.484 162.874C566.284 162.874 573.418 168.722 573.418 175.937Z" fill="#A2AAF5"/>
<path d="M545.396 171.883C545.396 179.097 538.262 184.946 529.462 184.946C520.661 184.946 513.527 179.097 513.527 171.883C513.527 164.668 520.661 158.82 529.462 158.82C538.262 158.82 545.396 164.668 545.396 171.883Z" fill="#A2AAF5"/>
<path d="M591 162.874C591 170.088 583.866 175.937 575.066 175.937C566.266 175.937 559.132 170.088 559.132 162.874C559.132 155.659 566.266 149.811 575.066 149.811C583.866 149.811 591 155.659 591 162.874Z" fill="#A2AAF5"/>
<path d="M569.022 157.919C569.022 165.133 561.888 170.982 553.088 170.982C544.288 170.982 537.154 165.133 537.154 157.919C537.154 150.704 544.288 144.856 553.088 144.856C561.888 144.856 569.022 150.704 569.022 157.919Z" fill="#A2AAF5"/>
<path d="M522.868 165.577C522.868 172.791 515.734 178.64 506.934 178.64C498.134 178.64 491 172.791 491 165.577C491 158.362 498.134 152.514 506.934 152.514C515.734 152.514 522.868 158.362 522.868 165.577Z" fill="#A2AAF5"/>
</g>
<g opacity="0.2">
<path d="M271 153.063C271 160.278 263.866 166.126 255.066 166.126C246.266 166.126 239.132 160.278 239.132 153.063C239.132 145.849 246.266 140 255.066 140C263.866 140 271 145.849 271 153.063Z" fill="#A2AAF5"/>
<path d="M271 153.063C271 160.278 263.866 166.126 255.066 166.126C246.266 166.126 239.132 160.278 239.132 153.063C239.132 145.849 246.266 140 255.066 140C263.866 140 271 145.849 271 153.063Z" fill="#A2AAF5"/>
<path d="M271 153.063C271 160.278 263.866 166.126 255.066 166.126C246.266 166.126 239.132 160.278 239.132 153.063C239.132 145.849 246.266 140 255.066 140C263.866 140 271 145.849 271 153.063Z" fill="#A2AAF5"/>
<path d="M303.418 176.937C303.418 184.151 296.284 190 287.484 190C278.683 190 271.549 184.151 271.549 176.937C271.549 169.722 278.683 163.874 287.484 163.874C296.284 163.874 303.418 169.722 303.418 176.937Z" fill="#A2AAF5"/>
<path d="M275.396 172.883C275.396 180.097 268.262 185.946 259.462 185.946C250.661 185.946 243.527 180.097 243.527 172.883C243.527 165.668 250.661 159.82 259.462 159.82C268.262 159.82 275.396 165.668 275.396 172.883Z" fill="#A2AAF5"/>
<path d="M321 163.874C321 171.088 313.866 176.937 305.066 176.937C296.266 176.937 289.132 171.088 289.132 163.874C289.132 156.659 296.266 150.811 305.066 150.811C313.866 150.811 321 156.659 321 163.874Z" fill="#A2AAF5"/>
<path d="M299.022 158.919C299.022 166.133 291.888 171.982 283.088 171.982C274.288 171.982 267.154 166.133 267.154 158.919C267.154 151.704 274.288 145.856 283.088 145.856C291.888 145.856 299.022 151.704 299.022 158.919Z" fill="#A2AAF5"/>
<path d="M252.868 166.577C252.868 173.791 245.734 179.64 236.934 179.64C228.134 179.64 221 173.791 221 166.577C221 159.362 228.134 153.514 236.934 153.514C245.734 153.514 252.868 159.362 252.868 166.577Z" fill="#A2AAF5"/>
</g>
<g opacity="0.2">
<path d="M108.5 167.36C108.5 187.994 93.8755 204.721 75.8352 204.721C57.7949 204.721 43.1703 187.994 43.1703 167.36C43.1703 146.727 57.7949 130 75.8352 130C93.8755 130 108.5 146.727 108.5 167.36Z" fill="#A2AAF5"/>
<path d="M108.5 167.36C108.5 187.994 93.8755 204.721 75.8352 204.721C57.7949 204.721 43.1703 187.994 43.1703 167.36C43.1703 146.727 57.7949 130 75.8352 130C93.8755 130 108.5 146.727 108.5 167.36Z" fill="#A2AAF5"/>
<path d="M108.5 167.36C108.5 187.994 93.8755 204.721 75.8352 204.721C57.7949 204.721 43.1703 187.994 43.1703 167.36C43.1703 146.727 57.7949 130 75.8352 130C93.8755 130 108.5 146.727 108.5 167.36Z" fill="#A2AAF5"/>
<path d="M174.956 235.64C174.956 256.273 160.332 273 142.291 273C124.251 273 109.626 256.273 109.626 235.64C109.626 215.006 124.251 198.279 142.291 198.279C160.332 198.279 174.956 215.006 174.956 235.64Z" fill="#A2AAF5"/>
<path d="M117.511 224.045C117.511 244.679 102.886 261.405 84.8462 261.405C66.8059 261.405 52.1813 244.679 52.1813 224.045C52.1813 203.411 66.8059 186.685 84.8462 186.685C102.886 186.685 117.511 203.411 117.511 224.045Z" fill="#A2AAF5"/>
<path d="M211 198.279C211 218.913 196.375 235.64 178.335 235.64C160.295 235.64 145.67 218.913 145.67 198.279C145.67 177.646 160.295 160.919 178.335 160.919C196.375 160.919 211 177.646 211 198.279Z" fill="#A2AAF5"/>
<path d="M165.945 184.108C165.945 204.742 151.321 221.468 133.28 221.468C115.24 221.468 100.615 204.742 100.615 184.108C100.615 163.475 115.24 146.748 133.28 146.748C151.321 146.748 165.945 163.475 165.945 184.108Z" fill="#A2AAF5"/>
<path d="M71.3297 206.009C71.3297 226.643 56.7051 243.369 38.6648 243.369C20.6245 243.369 6 226.643 6 206.009C6 185.375 20.6245 168.649 38.6648 168.649C56.7051 168.649 71.3297 185.375 71.3297 206.009Z" fill="#A2AAF5"/>
</g>
<g opacity="0.2">
<path d="M679 66.0631C679 73.2776 671.866 79.1261 663.066 79.1261C654.266 79.1261 647.132 73.2776 647.132 66.0631C647.132 58.8485 654.266 53 663.066 53C671.866 53 679 58.8485 679 66.0631Z" fill="#A2AAF5"/>
<path d="M679 66.0631C679 73.2776 671.866 79.1261 663.066 79.1261C654.266 79.1261 647.132 73.2776 647.132 66.0631C647.132 58.8485 654.266 53 663.066 53C671.866 53 679 58.8485 679 66.0631Z" fill="#A2AAF5"/>
<path d="M679 66.0631C679 73.2776 671.866 79.1261 663.066 79.1261C654.266 79.1261 647.132 73.2776 647.132 66.0631C647.132 58.8485 654.266 53 663.066 53C671.866 53 679 58.8485 679 66.0631Z" fill="#A2AAF5"/>
<path d="M711.418 89.9369C711.418 97.1515 704.284 103 695.484 103C686.683 103 679.549 97.1515 679.549 89.9369C679.549 82.7224 686.683 76.8739 695.484 76.8739C704.284 76.8739 711.418 82.7224 711.418 89.9369Z" fill="#A2AAF5"/>
<path d="M683.396 85.8829C683.396 93.0974 676.262 98.9459 667.462 98.9459C658.661 98.9459 651.527 93.0974 651.527 85.8829C651.527 78.6684 658.661 72.8198 667.462 72.8198C676.262 72.8198 683.396 78.6684 683.396 85.8829Z" fill="#A2AAF5"/>
<path d="M729 76.8739C729 84.0884 721.866 89.9369 713.066 89.9369C704.266 89.9369 697.132 84.0884 697.132 76.8739C697.132 69.6593 704.266 63.8108 713.066 63.8108C721.866 63.8108 729 69.6593 729 76.8739Z" fill="#A2AAF5"/>
<path d="M707.022 71.9189C707.022 79.1334 699.888 84.982 691.088 84.982C682.288 84.982 675.154 79.1334 675.154 71.9189C675.154 64.7044 682.288 58.8559 691.088 58.8559C699.888 58.8559 707.022 64.7044 707.022 71.9189Z" fill="#A2AAF5"/>
<path d="M660.868 79.5766C660.868 86.7911 653.734 92.6396 644.934 92.6396C636.134 92.6396 629 86.7911 629 79.5766C629 72.362 636.134 66.5135 644.934 66.5135C653.734 66.5135 660.868 72.362 660.868 79.5766Z" fill="#A2AAF5"/>
</g>
<g opacity="0.2">
<path d="M738.5 172.477C738.5 188.205 726.872 200.955 712.527 200.955C698.183 200.955 686.555 188.205 686.555 172.477C686.555 156.75 698.183 144 712.527 144C726.872 144 738.5 156.75 738.5 172.477Z" fill="#A2AAF5"/>
<path d="M738.5 172.477C738.5 188.205 726.872 200.955 712.527 200.955C698.183 200.955 686.555 188.205 686.555 172.477C686.555 156.75 698.183 144 712.527 144C726.872 144 738.5 156.75 738.5 172.477Z" fill="#A2AAF5"/>
<path d="M738.5 172.477C738.5 188.205 726.872 200.955 712.527 200.955C698.183 200.955 686.555 188.205 686.555 172.477C686.555 156.75 698.183 144 712.527 144C726.872 144 738.5 156.75 738.5 172.477Z" fill="#A2AAF5"/>
<path d="M791.341 224.523C791.341 240.25 779.712 253 765.368 253C751.024 253 739.396 240.25 739.396 224.523C739.396 208.795 751.024 196.045 765.368 196.045C779.712 196.045 791.341 208.795 791.341 224.523Z" fill="#A2AAF5"/>
<path d="M745.665 215.685C745.665 231.412 734.037 244.162 719.692 244.162C705.348 244.162 693.72 231.412 693.72 215.685C693.72 199.957 705.348 187.207 719.692 187.207C734.037 187.207 745.665 199.957 745.665 215.685Z" fill="#A2AAF5"/>
<path d="M820 196.045C820 211.773 808.372 224.523 794.027 224.523C779.683 224.523 768.055 211.773 768.055 196.045C768.055 180.317 779.683 167.568 794.027 167.568C808.372 167.568 820 180.317 820 196.045Z" fill="#A2AAF5"/>
<path d="M784.176 185.243C784.176 200.971 772.548 213.721 758.203 213.721C743.859 213.721 732.231 200.971 732.231 185.243C732.231 169.516 743.859 156.766 758.203 156.766C772.548 156.766 784.176 169.516 784.176 185.243Z" fill="#A2AAF5"/>
<path d="M708.945 201.937C708.945 217.665 697.317 230.414 682.973 230.414C668.628 230.414 657 217.665 657 201.937C657 186.209 668.628 173.459 682.973 173.459C697.317 173.459 708.945 186.209 708.945 201.937Z" fill="#A2AAF5"/>
</g>
<path d="M42 202C25.5639 255.333 2.41509 338.8 0 354V485H800V202L770.818 327L708.428 156L634.969 309L577.61 222L510.189 361L449.811 272L379.371 406L325.031 337L291.824 406L212.327 266L179.12 346L119.748 222L87.5472 309L42 202Z" fill="#747FB8"/>
<path d="M42 210C20 249 2.41509 357.8 0 373V485H800V247L780 287L772 327L760 309L749 270L709 160L681 270L634 309L612 277L576 228L553 327L540 350L511 361L488 344L453 298L429 373L383 431L345 400L326 344L298 400H289L245 373L209 270L186 327L180 344L143 327L119 228L96 287L87 309L62 298L42 210Z" fill="#374592"/>
<path d="M44 304C22 343 2.41509 357.8 0 373V485H800V320L779 367L748 327L728 277L704 239L692 332L651 393H610L577 320L564 348L532 385L526 417L479 400L450 348L409 417L360 454L345 417L326 400L307 431V461L289 468L244 385L214 337L205 361L194 400L178 441L123 332L120 296L88 393L44 304Z" fill="#0F1D67"/>
<path d="M42 328C20 367 2.41509 353.8 0 369V481H800V333L791 369L773 390L740 333L724 297L715 265L704 357L660 422H598L574 346L561 369L551 403L532 422L475 439L451 369L412 445L361 469L336 431L326 396L316 431L307 464H286L246 422L221 357H216L205 439L183 464L135 403L115 333L110 376L86 422L42 328Z" fill="#151D43"/>
<path d="M1 480L32 449L40 475L64 449L74 475L96 455L107 475L127 455L140 480L157 463L167 480L189 463L202 480L223 463L232 475L250 463L254 471L274 463L280 475L298 463L307 480L329 463L337 480L359 471V475L384 463L391 480L415 463L428 480L449 463L464 480L480 463L492 480L506 463L524 480L544 455L562 480L588 463L596 475L612 455L628 480L644 463L659 480L674 463L687 480L708 463L720 480L743 463L750 480L768 463L778 480L792 455L803 480H778H750H720H687H659H628H562H524H492H464H428H391H337H307H202H167H140H1Z" fill="#063801"/>
<rect y="485" width="800" height="115" fill="#7591DB"/>
<ellipse opacity="0.25" rx="9" ry="1" transform="matrix(1 0 0 -1 535 501)" fill="#FFFCFC"/>
<ellipse opacity="0.25" rx="9" ry="1" transform="matrix(1 0 0 -1 276 506)" fill="#FFFCFC"/>
<ellipse opacity="0.25" rx="9" ry="1" transform="matrix(1 0 0 -1 148 505)" fill="#FFFCFC"/>
<ellipse opacity="0.25" rx="9" ry="1" transform="matrix(1 0 0 -1 153 552)" fill="#FFFCFC"/>
<ellipse opacity="0.25" rx="9" ry="1" transform="matrix(1 0 0 -1 38 499)" fill="#FFFCFC"/>
<ellipse opacity="0.25" cx="750" cy="494" rx="9" ry="1" fill="#FFFCFC"/>
<ellipse opacity="0.25" rx="15" ry="2" transform="matrix(1 0 0 -1 546 541)" fill="#FFFCFC"/>
<ellipse opacity="0.25" rx="15" ry="2" transform="matrix(1 0 0 -1 244 536)" fill="#FFFCFC"/>
<ellipse opacity="0.25" rx="15" ry="2" transform="matrix(1 0 0 -1 93 556)" fill="#FFFCFC"/>
<ellipse opacity="0.25" rx="15" ry="2" transform="matrix(1 0 0 -1 770 557)" fill="#FFFCFC"/>
<ellipse opacity="0.25" rx="15" ry="2" transform="matrix(1 0 0 -1 671 553)" fill="#FFFCFC"/>
<ellipse opacity="0.25" rx="20" ry="3" transform="matrix(1 0 0 -1 595 573)" fill="#FFFCFC"/>
<ellipse opacity="0.25" rx="20" ry="3" transform="matrix(1 0 0 -1 216 576)" fill="#FFFCFC"/>
<ellipse opacity="0.25" rx="20" ry="3" transform="matrix(1 0 0 -1 29 593)" fill="#FFFCFC"/>
<ellipse opacity="0.25" rx="20" ry="3" transform="matrix(1 0 0 -1 666 597)" fill="#FFFCFC"/>
<ellipse opacity="0.25" rx="20" ry="3" transform="matrix(1 0 0 -1 770 586)" fill="#FFFCFC"/>
<ellipse opacity="0.25" cx="724" cy="544" rx="9" ry="1" fill="#FFFCFC"/>
<ellipse opacity="0.25" cx="623" cy="511" rx="9" ry="1" fill="#FFFCFC"/>
<ellipse opacity="0.25" cx="606" cy="539" rx="9" ry="1" fill="#FFFCFC"/>
<ellipse opacity="0.25" cx="544" cy="585" rx="9" ry="1" fill="#FFFCFC"/>
<path opacity="0.35" d="M372.923 488.73C368.171 486.502 378.738 486.554 384.615 486.859L386.164 487.618C394.294 487.448 413.149 487.134 423.524 487.234C436.494 487.359 420.376 490.923 403.772 491.011C387.168 491.099 410.507 492.068 435.371 496.276C459.891 500.425 430.497 496.337 411.27 496.045C418.957 496.432 431.623 497.485 442.079 500.06C463.043 505.222 435.335 499.995 411.989 499.77C388.643 499.545 422.605 501.856 448.235 507.311C473.865 512.766 440.194 507.233 413.995 506.981C387.796 506.728 427.203 509.34 469.917 518.679C512.632 528.018 452.3 516.277 418.506 523.391C384.713 530.505 438.194 526.309 478.355 531.408C518.516 536.507 462.775 532.993 434.964 538.429C407.154 543.864 455.44 540.362 493.545 543.457C531.65 546.553 474.038 548.725 436.372 553.817C398.707 558.91 462.291 556.299 500.093 563.855C537.896 571.411 491.762 566.999 447.616 571.533C403.471 576.067 468.86 574.465 501.648 590.9C527.879 604.048 457.082 598.118 413.995 598.118C398.513 598.465 362.74 606.118 328.568 590.9C291.05 574.192 351.563 578.542 401.936 573.82C452.309 569.098 366.656 573.728 319.553 562.114C272.45 550.501 354.576 561.956 396.663 555.666C438.75 549.377 357.247 554.046 328.568 541.867C299.89 529.687 348.006 543.79 391.126 538.006C434.246 532.222 365.475 534.783 343.5 526.884C321.525 518.984 360.634 525.561 388.711 519.384C416.789 513.207 367.193 517.937 343.653 511.014C320.112 504.092 369.079 510.763 388.833 506.738C408.588 502.713 372.76 505.591 357.756 501.231C342.752 496.87 384.46 502.976 391.497 499.572C398.534 496.168 378.786 499.45 362.74 495.575C346.693 491.701 367.949 493.394 387.161 491.843C406.373 490.292 378.863 491.515 372.923 488.73Z" fill="white"/>
<ellipse cx="52.3213" cy="496.771" rx="9.1629" ry="11.3741" fill="#0E5608"/>
<ellipse cx="68.0814" cy="496.771" rx="9.1629" ry="11.3741" fill="#0E5608"/>
<ellipse cx="90.8054" cy="524.069" rx="9.1629" ry="11.3741" fill="#0E5608"/>
<ellipse cx="72.4796" cy="478.573" rx="9.1629" ry="11.3741" fill="#0E5608"/>
<ellipse cx="61.4842" cy="478.573" rx="9.1629" ry="11.3741" fill="#0E5608"/>
<ellipse cx="58.9186" cy="478.573" rx="9.1629" ry="11.3741" fill="#0E5608"/>
<ellipse cx="58.9186" cy="485.397" rx="9.1629" ry="11.3741" fill="#0E5608"/>
<ellipse cx="88.2398" cy="547.499" rx="9.1629" ry="11.3741" fill="#0E5608"/>
<ellipse cx="35.8281" cy="489.947" rx="9.1629" ry="11.3741" fill="#0E5608"/>
<ellipse cx="32.1629" cy="471.748" rx="9.1629" ry="11.3741" fill="#0E5608"/>
<ellipse cx="44.991" cy="460.374" rx="9.1629" ry="11.3741" fill="#0E5608"/>
<ellipse cx="61.4842" cy="464.924" rx="9.1629" ry="11.3741" fill="#0E5608"/>
<ellipse cx="72.4796" cy="485.397" rx="9.1629" ry="11.3741" fill="#0E5608"/>
<ellipse cx="94.8371" cy="535.443" rx="9.1629" ry="11.3741" fill="#0E5608"/>
<ellipse cx="81.6425" cy="536.125" rx="9.1629" ry="11.3741" fill="#0E5608"/>
<ellipse cx="55.9864" cy="467.198" rx="9.1629" ry="3.6397" fill="#0E5608"/>
<ellipse cx="46.8235" cy="478.573" rx="9.1629" ry="11.3741" fill="#0E5608"/>
<path d="M39.8597 600.047C27.7647 598.683 40.5927 590.038 46.457 507.69C47.3723 494.837 51.8081 493.382 52.6878 494.837C53.5674 496.293 53.4208 541.054 52.6878 555.916L72.1131 549.092L79.8099 543.632H88.2398C79.6878 553.035 61.3375 560.375 56.3529 561.831C51.3683 563.286 55.9864 591.858 58.9185 600.047C56.5973 600.502 49.5357 601.139 39.8597 600.047Z" fill="#0E5608" stroke="black"/>
<ellipse cx="119.081" cy="512.171" rx="6.90045" ry="8.37398" fill="#0E5608"/>
<ellipse cx="130.95" cy="512.171" rx="6.90045" ry="8.37398" fill="#0E5608"/>
<ellipse cx="148.063" cy="532.268" rx="6.90045" ry="8.37398" fill="#0E5608"/>
<ellipse cx="134.262" cy="498.772" rx="6.90045" ry="8.37398" fill="#0E5608"/>
<ellipse cx="125.982" cy="498.772" rx="6.90045" ry="8.37398" fill="#0E5608"/>
<ellipse cx="124.05" cy="498.772" rx="6.90045" ry="8.37398" fill="#0E5608"/>
<ellipse cx="124.05" cy="503.797" rx="6.90045" ry="8.37398" fill="#0E5608"/>
<ellipse cx="146.131" cy="549.519" rx="6.90045" ry="8.37398" fill="#0E5608"/>
<ellipse cx="106.661" cy="507.146" rx="6.90045" ry="8.37398" fill="#0E5608"/>
<ellipse cx="103.9" cy="493.748" rx="6.90045" ry="8.37398" fill="#0E5608"/>
<ellipse cx="113.561" cy="485.374" rx="6.90045" ry="8.37398" fill="#0E5608"/>
<ellipse cx="125.982" cy="488.724" rx="6.90045" ry="8.37398" fill="#0E5608"/>
<ellipse cx="134.262" cy="503.797" rx="6.90045" ry="8.37398" fill="#0E5608"/>
<ellipse cx="151.1" cy="540.642" rx="6.90045" ry="8.37398" fill="#0E5608"/>
<ellipse cx="141.163" cy="541.145" rx="6.90045" ry="8.37398" fill="#0E5608"/>
<ellipse cx="121.842" cy="490.398" rx="6.90045" ry="2.67967" fill="#0E5608"/>
<ellipse cx="114.941" cy="498.772" rx="6.90045" ry="8.37398" fill="#0E5608"/>
<path d="M109.697 588.206C100.588 587.202 110.249 580.837 114.665 520.21C115.354 510.747 118.695 509.675 119.357 510.747C120.02 511.819 119.909 544.773 119.357 555.715L133.986 550.691L139.783 546.672H146.131C139.691 553.594 125.871 558.998 122.118 560.07C118.364 561.142 121.842 582.177 124.05 588.206C122.302 588.541 116.984 589.01 109.697 588.206Z" fill="#0E5608" stroke="black"/>
<rect y="579" width="800" height="21" fill="#03560C"/>
<path d="M773.88 578.519C769.425 578.027 773.011 573.658 776.558 502.585L775.421 506.363L774.342 497.66L771.106 504.398L769.256 496.537L766.944 502.994L766.174 496.537L763.246 504.398C763.246 504.398 762.826 502.424 762.487 500.751C762.386 503.29 759.816 504.134 757.543 504.398L762.321 490.641C766.784 471.904 770.18 462.094 778.041 446C781.222 461.039 782.924 470.156 787.289 475.199C791.653 480.243 796.536 504.398 796.536 504.398L793.145 501.591L790.679 499.344C790.523 502.025 790.167 503.224 788.676 504.398L786.826 497.66C785.602 504.013 785.41 504.664 784.977 506.363C783.355 504.954 782.53 503.602 781.586 497.66L779.268 506.363L781.586 578.519C780.713 578.706 777.949 578.968 773.88 578.519Z" fill="#0E5608"/>
<path d="M756.079 538.932C756.174 529.514 761.913 512.415 777.502 485.026C782.706 511.41 787.463 523.638 798 542.582H795.842L794.609 538.932L793.068 542.582L791.219 538.932C791.602 541.737 791.438 542.921 788.753 542.582L787.52 538.932L785.67 542.582L783.821 538.932C782.714 544.546 781.474 545.756 778.272 544.828L777.502 538.932L775.806 544.828L774.265 538.932L771.491 544.828C769.864 545.938 769.197 536.428 769.333 538.932C769.47 541.436 767.792 542.582 767.792 542.582L766.251 538.932C766.057 541.916 765.6 543.186 764.247 544.828L763.014 538.932C760.626 540.204 759.962 541.299 760.458 543.086C760.887 543.991 761.165 544.828 761.165 544.828C760.842 544.175 760.602 543.602 760.458 543.086C760.013 542.144 759.404 541.128 758.776 540.897C756.91 540.212 755 546.512 755 546.512L756.079 538.932Z" fill="#0E5608"/>
<path d="M773.572 505.521H781.278V519.559H773.572V505.521Z" fill="#0E5608"/>
<path d="M637.806 601.567C634.077 601.172 637.079 597.658 640.049 540.504L639.097 543.542L638.194 536.543L635.484 541.962L633.935 535.64L632 540.833L631.355 535.64L628.903 541.962C628.903 541.962 628.552 540.375 628.268 539.029C628.184 541.071 626.032 541.75 624.129 541.962L628.129 530.899C631.866 515.831 634.709 507.942 641.29 495C643.953 507.093 645.378 514.425 649.032 518.481C652.686 522.537 656.774 541.962 656.774 541.962L653.935 539.704L651.871 537.898C651.741 540.053 651.442 541.017 650.194 541.962L648.645 536.543C647.62 541.653 647.46 542.176 647.097 543.542C645.739 542.409 645.048 541.321 644.258 536.543L642.317 543.542L644.258 601.567C643.527 601.718 641.213 601.929 637.806 601.567Z" fill="#0E5608"/>
<path d="M622.903 569.733C622.983 562.159 627.788 548.409 640.839 526.383C645.196 547.601 649.178 557.434 658 572.668H656.194L655.161 569.733L653.871 572.668L652.323 569.733C652.644 571.988 652.507 572.941 650.258 572.668L649.226 569.733L647.677 572.668L646.129 569.733C645.203 574.247 644.164 575.221 641.484 574.474L640.839 569.733L639.419 574.474L638.129 569.733L635.806 574.474C634.445 575.367 633.886 567.719 634 569.733C634.114 571.746 632.71 572.668 632.71 572.668L631.419 569.733C631.257 572.132 630.875 573.154 629.742 574.474L628.71 569.733C626.71 570.756 626.154 571.636 626.57 573.073C626.929 573.802 627.161 574.474 627.161 574.474C626.891 573.949 626.69 573.488 626.57 573.073C626.197 572.316 625.687 571.499 625.161 571.313C623.599 570.762 622 575.829 622 575.829L622.903 569.733Z" fill="#0E5608"/>
<path d="M637.548 542.865H644V554.154H637.548V542.865Z" fill="#0E5608"/>
<path d="M709.66 589.64C707.38 589.389 709.215 587.159 711.03 550.882L710.448 552.811L709.896 548.368L708.24 551.808L707.294 547.795L706.111 551.091L705.717 547.795L704.219 551.808C704.219 551.808 704.004 550.8 703.83 549.946C703.779 551.242 702.464 551.673 701.301 551.808L703.746 544.786C706.029 535.222 707.767 530.215 711.789 522C713.416 529.676 714.287 534.33 716.52 536.904C718.753 539.478 721.251 551.808 721.251 551.808L719.516 550.375L718.254 549.228C718.175 550.596 717.992 551.208 717.229 551.808L716.283 548.368C715.657 551.611 715.559 551.943 715.337 552.811C714.507 552.091 714.085 551.401 713.602 548.368L712.416 552.811L713.602 589.64C713.155 589.736 711.741 589.87 709.66 589.64Z" fill="#0E5608"/>
<path d="M700.552 569.434C700.601 564.627 703.537 555.9 711.513 541.92C714.175 555.387 716.609 561.628 722 571.297H720.896L720.265 569.434L719.477 571.297L718.53 569.434C718.727 570.866 718.643 571.471 717.269 571.297L716.638 569.434L715.692 571.297L714.746 569.434C714.18 572.3 713.545 572.918 711.907 572.444L711.513 569.434L710.645 572.444L709.857 569.434L708.437 572.444C707.605 573.011 707.264 568.156 707.333 569.434C707.403 570.712 706.545 571.297 706.545 571.297L705.756 569.434C705.657 570.957 705.424 571.606 704.731 572.444L704.1 569.434C702.878 570.084 702.539 570.642 702.793 571.555C703.012 572.017 703.154 572.444 703.154 572.444C702.989 572.111 702.866 571.818 702.793 571.555C702.565 571.074 702.253 570.555 701.932 570.437C700.977 570.088 700 573.303 700 573.303L700.552 569.434Z" fill="#0E5608"/>
<path d="M709.502 552.381H713.444V559.546H709.502V552.381Z" fill="#0E5608"/>
</g>
<defs>
<filter id="filter0_d" x="180" y="-96" width="441" height="440" filterUnits="userSpaceOnUse" color-interpolation-filters="sRGB">
<feFlood flood-opacity="0" result="BackgroundImageFix"/>
<feColorMatrix in="SourceAlpha" type="matrix" values="0 0 0 0 0 0 0 0 0 0 0 0 0 0 0 0 0 0 127 0"/>
<feOffset/>
<feGaussianBlur stdDeviation="87.5"/>
<feColorMatrix type="matrix" values="0 0 0 0 1 0 0 0 0 1 0 0 0 0 1 0 0 0 1 0"/>
<feBlend mode="normal" in2="BackgroundImageFix" result="effect1_dropShadow"/>
<feBlend mode="normal" in="SourceGraphic" in2="effect1_dropShadow" result="shape"/>
</filter>
<linearGradient id="paint0_linear" x1="400" y1="0" x2="400" y2="600" gradientUnits="userSpaceOnUse">
<stop stop-color="#231A89"/>
<stop offset="1" stop-color="#8B81FF"/>
</linearGradient>
<clipPath id="clip0">
<rect width="800" height="600" fill="white"/>
</clipPath>
</defs>
</svg>
